AnekGurmukhi-Medium.ufo
<glyph name="registered" format="2">
  <advance width="833"/>
  <unicode hex="00AE"/>
  <outline>
    <contour>
      <point x="417" y="535" type="curve" smooth="yes"/>
      <point x="643" y="535"/>
      <point x="771" y="661"/>
      <point x="771" y="876" type="curve" smooth="yes"/>
      <point x="771" y="956" type="line" smooth="yes"/>
      <point x="771" y="1171"/>
      <point x="643" y="1297"/>
      <point x="417" y="1297" type="curve" smooth="yes"/>
      <point x="190" y="1297"/>
      <point x="62" y="1171"/>
      <point x="62" y="956" type="curve" smooth="yes"/>
      <point x="62" y="876" type="line" smooth="yes"/>
      <point x="62" y="661"/>
      <point x="190" y="535"/>
    </contour>
    <contour>
      <point x="417" y="610" type="curve" smooth="yes"/>
      <point x="240" y="610"/>
      <point x="148" y="701"/>
      <point x="148" y="873" type="curve" smooth="yes"/>
      <point x="148" y="960" type="line" smooth="yes"/>
      <point x="148" y="1131"/>
      <point x="240" y="1222"/>
      <point x="417" y="1222" type="curve" smooth="yes"/>
      <point x="593" y="1222"/>
      <point x="684" y="1131"/>
      <point x="684" y="960" type="curve" smooth="yes"/>
      <point x="684" y="873" type="line" smooth="yes"/>
      <point x="684" y="701"/>
      <point x="593" y="610"/>
    </contour>
    <contour>
      <point x="497" y="732" type="line"/>
      <point x="580" y="732" type="line"/>
      <point x="567" y="808" type="line" smooth="yes"/>
      <point x="556" y="873"/>
      <point x="538" y="903"/>
      <point x="474" y="909" type="curve"/>
      <point x="489" y="900" type="line"/>
      <point x="489" y="910" type="line"/>
      <point x="546" y="916"/>
      <point x="572" y="947"/>
      <point x="572" y="998" type="curve" smooth="yes"/>
      <point x="572" y="1005" type="line" smooth="yes"/>
      <point x="572" y="1078"/>
      <point x="532" y="1115"/>
      <point x="443" y="1115" type="curve" smooth="yes"/>
      <point x="335" y="1115" type="line"/>
      <point x="335" y="1050" type="line"/>
      <point x="432" y="1050" type="line" smooth="yes"/>
      <point x="474" y="1050"/>
      <point x="491" y="1029"/>
      <point x="491" y="994" type="curve" smooth="yes"/>
      <point x="491" y="985" type="line" smooth="yes"/>
      <point x="491" y="948"/>
      <point x="473" y="928"/>
      <point x="431" y="928" type="curve" smooth="yes"/>
      <point x="336" y="928" type="line"/>
      <point x="336" y="864" type="line"/>
      <point x="417" y="864" type="line" smooth="yes"/>
      <point x="461" y="864"/>
      <point x="479" y="847"/>
      <point x="487" y="797" type="curve" smooth="yes"/>
    </contour>
    <contour>
      <point x="282" y="732" type="line"/>
      <point x="362" y="732" type="line"/>
      <point x="362" y="879" type="line"/>
      <point x="362" y="906" type="line"/>
      <point x="362" y="1115" type="line"/>
      <point x="282" y="1115" type="line"/>
    </contour>
  </outline>
</glyph>
<glyph name="questiondown" format="2">
  <advance width="902"/>
  <unicode hex="00BF"/>
  <outline>
    <contour>
      <point x="633" y="587" type="line"/>
      <point x="517" y="562" type="line" smooth="yes"/>
      <point x="228" y="500"/>
      <point x="81" y="384"/>
      <point x="81" y="121" type="curve" smooth="yes"/>
      <point x="81" y="42" type="line" smooth="yes"/>
      <point x="81" y="-193"/>
      <point x="208" y="-323"/>
      <point x="482" y="-323" type="curve" smooth="yes"/>
      <point x="639" y="-323"/>
      <point x="763" y="-278"/>
      <point x="834" y="-237" type="curve"/>
      <point x="856" y="-61" type="line"/>
      <point x="761" y="-111"/>
      <point x="641" y="-154"/>
      <point x="513" y="-154" type="curve" smooth="yes"/>
      <point x="343" y="-154"/>
      <point x="280" y="-78"/>
      <point x="280" y="59" type="curve" smooth="yes"/>
      <point x="280" y="124" type="line" smooth="yes"/>
      <point x="280" y="276"/>
      <point x="355" y="353"/>
      <point x="548" y="396" type="curve" smooth="yes"/>
      <point x="633" y="415" type="line"/>
    </contour>
    <contour>
      <point x="548" y="999" type="curve" smooth="yes"/>
      <point x="469" y="999"/>
      <point x="431" y="954"/>
      <point x="431" y="876" type="curve" smooth="yes"/>
      <point x="431" y="866" type="line" smooth="yes"/>
      <point x="431" y="789"/>
      <point x="469" y="744"/>
      <point x="548" y="744" type="curve" smooth="yes"/>
      <point x="628" y="744"/>
      <point x="665" y="789"/>
      <point x="665" y="866" type="curve" smooth="yes"/>
      <point x="665" y="876" type="line" smooth="yes"/>
      <point x="665" y="954"/>
      <point x="628" y="999"/>
    </contour>
  </outline>
</glyph>
<glyph name="Thorn" format="2">
  <advance width="1134"/>
  <unicode hex="00DE"/>
  <anchor x="565" y="0" name="bottom"/>
  <anchor x="565" y="1278" name="top"/>
  <outline>
    <contour>
      <point x="274" y="209" type="line"/>
      <point x="632" y="209" type="line" smooth="yes"/>
      <point x="925" y="209"/>
      <point x="1056" y="352"/>
      <point x="1056" y="595" type="curve" smooth="yes"/>
      <point x="1056" y="692" type="line" smooth="yes"/>
      <point x="1056" y="934"/>
      <point x="926" y="1077"/>
      <point x="633" y="1077" type="curve" smooth="yes"/>
      <point x="273" y="1077" type="line"/>
      <point x="273" y="912" type="line"/>
      <point x="629" y="912" type="line" smooth="yes"/>
      <point x="787" y="912"/>
      <point x="856" y="832"/>
      <point x="856" y="687" type="curve" smooth="yes"/>
      <point x="856" y="600" type="line" smooth="yes"/>
      <point x="856" y="458"/>
      <point x="787" y="375"/>
      <point x="627" y="375" type="curve" smooth="yes"/>
      <point x="274" y="375" type="line"/>
    </contour>
    <contour>
      <point x="142" y="0" type="line"/>
      <point x="339" y="0" type="line"/>
      <point x="339" y="261" type="line"/>
      <point x="339" y="313" type="line"/>
      <point x="339" y="961" type="line"/>
      <point x="339" y="1037" type="line"/>
      <point x="339" y="1278" type="line"/>
      <point x="142" y="1278" type="line"/>
    </contour>
  </outline>
</glyph>
<glyph name="Danda.gm" format="2">
  <advance width="580"/>
  <unicode hex="0964"/>
  <outline>
    <contour>
      <point x="195" y="0" type="line"/>
      <point x="385" y="0" type="line"/>
      <point x="385" y="1217" type="line"/>
      <point x="195" y="1217" type="line"/>
    </contour>
  </outline>
</glyph>
<glyph name="Doubledanda.gm" format="2">
  <advance width="1039"/>
  <unicode hex="0965"/>
  <outline>
    <contour>
      <point x="656" y="0" type="line"/>
      <point x="844" y="0" type="line"/>
      <point x="844" y="1219" type="line"/>
      <point x="656" y="1219" type="line"/>
    </contour>
    <contour>
      <point x="195" y="0" type="line"/>
      <point x="383" y="0" type="line"/>
      <point x="383" y="1219" type="line"/>
      <point x="195" y="1219" type="line"/>
    </contour>
  </outline>
</glyph>
<glyph name="AddakBindi.gm" format="2">
  <unicode hex="0A01"/>
  <anchor x="444" y="1200" name="_top"/>
  <outline>
    <contour>
      <point x="307" y="1595" type="curve" smooth="yes"/>
      <point x="376" y="1595"/>
      <point x="406" y="1632"/>
      <point x="406" y="1693" type="curve" smooth="yes"/>
      <point x="406" y="1700" type="line" smooth="yes"/>
      <point x="406" y="1761"/>
      <point x="376" y="1798"/>
      <point x="307" y="1798" type="curve" smooth="yes"/>
      <point x="236" y="1798"/>
      <point x="207" y="1761"/>
      <point x="207" y="1700" type="curve" smooth="yes"/>
      <point x="207" y="1693" type="line" smooth="yes"/>
      <point x="207" y="1633"/>
      <point x="236" y="1595"/>
    </contour>
    <component base="Addak.gm"/>
  </outline>
</glyph>
<glyph name="Bindi.gm" format="2">
  <unicode hex="0A02"/>
  <anchor x="500" y="1200" name="_top"/>
  <outline>
    <contour>
      <point x="306" y="1422" type="curve" smooth="yes"/>
      <point x="389" y="1422"/>
      <point x="424" y="1466"/>
      <point x="424" y="1539" type="curve" smooth="yes"/>
      <point x="424" y="1547" type="line" smooth="yes"/>
      <point x="424" y="1620"/>
      <point x="388" y="1664"/>
      <point x="306" y="1664" type="curve" smooth="yes"/>
      <point x="222" y="1664"/>
      <point x="187" y="1619"/>
      <point x="187" y="1547" type="curve" smooth="yes"/>
      <point x="187" y="1539" type="line" smooth="yes"/>
      <point x="187" y="1467"/>
      <point x="222" y="1422"/>
    </contour>
  </outline>
</glyph>
<glyph name="Visarga.gm" format="2">
  <advance width="587"/>
  <unicode hex="0A03"/>
  <outline>
    <contour>
      <point x="292" y="678" type="curve" smooth="yes"/>
      <point x="368" y="678"/>
      <point x="407" y="721"/>
      <point x="407" y="795" type="curve" smooth="yes"/>
      <point x="407" y="807" type="line" smooth="yes"/>
      <point x="407" y="881"/>
      <point x="368" y="924"/>
      <point x="292" y="924" type="curve" smooth="yes"/>
      <point x="218" y="924"/>
      <point x="180" y="881"/>
      <point x="180" y="807" type="curve" smooth="yes"/>
      <point x="180" y="795" type="line" smooth="yes"/>
      <point x="180" y="721"/>
      <point x="218" y="678"/>
    </contour>
    <contour>
      <point x="292" y="108" type="curve" smooth="yes"/>
      <point x="368" y="108"/>
      <point x="407" y="151"/>
      <point x="407" y="225" type="curve" smooth="yes"/>
      <point x="407" y="237" type="line" smooth="yes"/>
      <point x="407" y="311"/>
      <point x="368" y="354"/>
      <point x="292" y="354" type="curve" smooth="yes"/>
      <point x="218" y="354"/>
      <point x="180" y="311"/>
      <point x="180" y="237" type="curve" smooth="yes"/>
      <point x="180" y="225" type="line" smooth="yes"/>
      <point x="180" y="151"/>
      <point x="218" y="108"/>
    </contour>
  </outline>
</glyph>
<glyph name="VowelA.gm" format="2">
  <advance width="1616"/>
  <unicode hex="0A05"/>
  <anchor x="1559" y="1200" name="top"/>
  <outline>
    <contour>
      <point x="695" y="111" type="curve"/>
      <point x="889" y="111" type="line"/>
      <point x="912" y="247"/>
      <point x="927" y="434"/>
      <point x="927" y="618" type="curve" smooth="yes"/>
      <point x="927" y="737"/>
      <point x="919" y="909"/>
      <point x="905" y="1062" type="curve"/>
      <point x="751" y="1062" type="line"/>
      <point x="250" y="720" type="line"/>
      <point x="267" y="540" type="line"/>
      <point x="782" y="885" type="line"/>
      <point x="723" y="892" type="line"/>
      <point x="732" y="795"/>
      <point x="736" y="704"/>
      <point x="736" y="628" type="curve" smooth="yes"/>
      <point x="736" y="450"/>
      <point x="721" y="261"/>
    </contour>
    <contour>
      <point x="135" y="296" type="curve"/>
      <point x="330" y="296" type="line"/>
      <point x="354" y="434"/>
      <point x="369" y="617"/>
      <point x="369" y="801" type="curve" smooth="yes"/>
      <point x="369" y="921"/>
      <point x="361" y="1075"/>
      <point x="347" y="1218" type="curve"/>
      <point x="11" y="1218" type="line"/>
      <point x="17" y="1073" type="line"/>
      <point x="163" y="1073" type="line"/>
      <point x="171" y="981"/>
      <point x="175" y="890"/>
      <point x="175" y="813" type="curve" smooth="yes"/>
      <point x="175" y="634"/>
      <point x="161" y="451"/>
    </contour>
    <contour>
      <point x="820" y="362" type="line"/>
      <point x="1337" y="686" type="line"/>
      <point x="1337" y="881" type="line"/>
      <point x="820" y="556" type="line"/>
    </contour>
    <component base="_cap.shiro_left"/>
    <component base="_danda" xOffset="1089"/>
  </outline>
</glyph>
<glyph name="VowelEe.gm" format="2">
  <advance width="1182"/>
  <unicode hex="0A0F"/>
  <anchor x="1401" y="1369" name="top1"/>
  <outline>
    <contour>
      <point x="688" y="-24" type="curve" smooth="yes"/>
      <point x="858" y="-24"/>
      <point x="987" y="13"/>
      <point x="1064" y="54" type="curve"/>
      <point x="1078" y="235" type="line"/>
      <point x="983" y="185"/>
      <point x="844" y="144"/>
      <point x="701" y="144" type="curve" smooth="yes"/>
      <point x="476" y="144"/>
      <point x="322" y="242"/>
      <point x="322" y="412" type="curve" smooth="yes"/>
      <point x="322" y="498" type="line"/>
      <point x="269" y="422" type="line"/>
      <point x="479" y="503"/>
      <point x="757" y="561"/>
      <point x="1031" y="592" type="curve"/>
      <point x="1031" y="1137" type="line"/>
      <point x="840" y="1137" type="line"/>
      <point x="840" y="725" type="line"/>
      <point x="738" y="712"/>
      <point x="622" y="681"/>
      <point x="526" y="667" type="curve"/>
      <point x="511" y="661" type="line"/>
      <point x="366" y="632"/>
      <point x="249" y="596"/>
      <point x="130" y="549" type="curve"/>
      <point x="130" y="430" type="line" smooth="yes"/>
      <point x="130" y="150"/>
      <point x="329" y="-24"/>
    </contour>
    <contour>
      <point x="481" y="645" type="line"/>
      <point x="574" y="645" type="line"/>
      <point x="710" y="702" type="line"/>
      <point x="474" y="702"/>
      <point x="332" y="803"/>
      <point x="332" y="998" type="curve" smooth="yes"/>
      <point x="332" y="1140" type="line"/>
      <point x="135" y="1140" type="line"/>
      <point x="135" y="978" type="line" smooth="yes"/>
      <point x="135" y="777"/>
      <point x="262" y="674"/>
      <point x="481" y="658" type="curve"/>
    </contour>
    <contour>
      <point x="27" y="1073" type="line"/>
      <point x="238" y="1073" type="line"/>
      <point x="251" y="1081" type="line"/>
      <point x="934" y="1081" type="line"/>
      <point x="947" y="1073" type="line"/>
      <point x="1162" y="1073" type="line"/>
      <point x="1162" y="1218" type="line"/>
      <point x="27" y="1218" type="line"/>
    </contour>
    <contour>
      <point x="931" y="1195" type="line"/>
      <point x="1031" y="1195" type="line"/>
      <point x="992" y="1587"/>
      <point x="817" y="1718"/>
      <point x="454" y="1718" type="curve" smooth="yes"/>
      <point x="391" y="1718"/>
      <point x="336" y="1713"/>
      <point x="275" y="1706" type="curve"/>
      <point x="260" y="1532" type="line"/>
      <point x="327" y="1540"/>
      <point x="400" y="1544"/>
      <point x="449" y="1544" type="curve" smooth="yes"/>
      <point x="767" y="1544"/>
      <point x="882" y="1440"/>
      <point x="929" y="1205" type="curve" smooth="yes"/>
    </contour>
    <component base="_cap.shiro_left"/>
    <component base="_cap.shiro_right" xOffset="926"/>
  </outline>
</glyph>
<glyph name="VowelOo.gm" format="2">
  <advance width="1282"/>
  <unicode hex="0A13"/>
  <outline>
    <contour>
      <point x="693" y="-27" type="curve" smooth="yes"/>
      <point x="1001" y="-27"/>
      <point x="1138" y="117"/>
      <point x="1138" y="330" type="curve" smooth="yes"/>
      <point x="1138" y="342" type="line" smooth="yes"/>
      <point x="1138" y="514"/>
      <point x="1039" y="630"/>
      <point x="800" y="640" type="curve"/>
      <point x="870" y="579" type="line"/>
      <point x="870" y="638" type="line"/>
      <point x="1041" y="648"/>
      <point x="1174" y="794"/>
      <point x="1174" y="1031" type="curve" smooth="yes"/>
      <point x="1174" y="1126" type="line"/>
      <point x="983" y="1126" type="line"/>
      <point x="983" y="1019" type="line" smooth="yes"/>
      <point x="983" y="818"/>
      <point x="874" y="712"/>
      <point x="692" y="712" type="curve" smooth="yes"/>
      <point x="244" y="712" type="line"/>
      <point x="244" y="560" type="line"/>
      <point x="702" y="560" type="line"/>
      <point x="863" y="560"/>
      <point x="940" y="477"/>
      <point x="940" y="355" type="curve" smooth="yes"/>
      <point x="940" y="345" type="line" smooth="yes"/>
      <point x="940" y="218"/>
      <point x="871" y="131"/>
      <point x="687" y="131" type="curve" smooth="yes"/>
      <point x="451" y="131"/>
      <point x="332" y="261"/>
      <point x="332" y="572" type="curve" smooth="yes"/>
      <point x="332" y="1092" type="line" smooth="yes"/>
      <point x="332" y="1417"/>
      <point x="481" y="1543"/>
      <point x="770" y="1543" type="curve" smooth="yes"/>
      <point x="861" y="1543"/>
      <point x="950" y="1529"/>
      <point x="1036" y="1505" type="curve"/>
      <point x="1024" y="1658" type="line"/>
      <point x="945" y="1685"/>
      <point x="849" y="1701"/>
      <point x="753" y="1701" type="curve" smooth="yes"/>
      <point x="354" y="1701"/>
      <point x="142" y="1510"/>
      <point x="142" y="1092" type="curve"/>
      <point x="142" y="573" type="line" smooth="yes"/>
      <point x="142" y="165"/>
      <point x="332" y="-27"/>
    </contour>
    <contour>
      <point x="18" y="1073" type="line"/>
      <point x="238" y="1073" type="line"/>
      <point x="240" y="1077" type="line"/>
      <point x="1097" y="1077" type="line"/>
      <point x="1100" y="1073" type="line"/>
      <point x="1270" y="1073" type="line"/>
      <point x="1270" y="1218" type="line"/>
      <point x="18" y="1218" type="line"/>
    </contour>
    <component base="_cap.shiro_left"/>
    <component base="_cap.shiro_right" xOffset="1028"/>
  </outline>
</glyph>
<glyph name="Ka.gm" format="2">
  <advance width="1270"/>
  <unicode hex="0A15"/>
  <anchor x="1398" y="100" name="bottom"/>
  <anchor x="1169" y="124" name="bottom1"/>
  <anchor x="1253" y="1200" name="top"/>
  <outline>
    <contour>
      <point x="21" y="1072" type="line"/>
      <point x="1266" y="1072" type="line"/>
      <point x="1266" y="1218" type="line"/>
      <point x="21" y="1218" type="line"/>
    </contour>
    <contour>
      <point x="955" y="0" type="line"/>
      <point x="1151" y="0" type="line"/>
      <point x="1135" y="123" type="line" smooth="yes"/>
      <point x="1107" y="335"/>
      <point x="1040" y="483"/>
      <point x="936" y="603" type="curve"/>
      <point x="912" y="633" type="line"/>
      <point x="816" y="784"/>
      <point x="679" y="892"/>
      <point x="465" y="892" type="curve" smooth="yes"/>
      <point x="228" y="892"/>
      <point x="94" y="759"/>
      <point x="94" y="542" type="curve" smooth="yes"/>
      <point x="94" y="538" type="line" smooth="yes"/>
      <point x="94" y="323"/>
      <point x="237" y="196"/>
      <point x="478" y="196" type="curve" smooth="yes"/>
      <point x="690" y="196"/>
      <point x="840" y="307"/>
      <point x="922" y="462" type="curve"/>
      <point x="944" y="495" type="line"/>
      <point x="1056" y="651"/>
      <point x="1115" y="829"/>
      <point x="1135" y="1005" type="curve" smooth="yes"/>
      <point x="1151" y="1143" type="line"/>
      <point x="950" y="1141" type="line"/>
      <point x="937" y="1013" type="line" smooth="yes"/>
      <point x="924" y="881"/>
      <point x="881" y="736"/>
      <point x="828" y="631" type="curve"/>
      <point x="821" y="597" type="line"/>
      <point x="770" y="474"/>
      <point x="638" y="358"/>
      <point x="500" y="358" type="curve" smooth="yes"/>
      <point x="362" y="358"/>
      <point x="287" y="427"/>
      <point x="287" y="539" type="curve" smooth="yes"/>
      <point x="287" y="543" type="line" smooth="yes"/>
      <point x="287" y="657"/>
      <point x="356" y="730"/>
      <point x="500" y="730" type="curve" smooth="yes"/>
      <point x="644" y="730"/>
      <point x="764" y="615"/>
      <point x="820" y="495" type="curve"/>
      <point x="829" y="466" type="line"/>
      <point x="878" y="389"/>
      <point x="917" y="274"/>
      <point x="938" y="122" type="curve" smooth="yes"/>
    </contour>
    <component base="_cap.shiro_left"/>
    <component base="_cap.shiro_right" xOffset="1013"/>
  </outline>
</glyph>
<glyph name="Ga.gm" format="2">
  <advance width="1621"/>
  <unicode hex="0A17"/>
  <anchor x="1721" y="100" name="bottom"/>
  <anchor x="1507" y="98" name="bottom1"/>
  <anchor x="1568" y="1200" name="top"/>
  <outline>
    <contour>
      <point x="577" y="-26" type="curve" smooth="yes"/>
      <point x="820" y="-26"/>
      <point x="963" y="96"/>
      <point x="963" y="320" type="curve" smooth="yes"/>
      <point x="963" y="1100" type="line"/>
      <point x="773" y="1100" type="line"/>
      <point x="773" y="720" type="line"/>
      <point x="775" y="711" type="line"/>
      <point x="775" y="326" type="line" smooth="yes"/>
      <point x="775" y="209"/>
      <point x="704" y="139"/>
      <point x="576" y="139" type="curve" smooth="yes"/>
      <point x="401" y="139"/>
      <point x="304" y="250"/>
      <point x="304" y="415" type="curve" smooth="yes"/>
      <point x="304" y="430" type="line" smooth="yes"/>
      <point x="304" y="566"/>
      <point x="370" y="637"/>
      <point x="523" y="637" type="curve" smooth="yes"/>
      <point x="854" y="637" type="line"/>
      <point x="854" y="797" type="line"/>
      <point x="501" y="797" type="line" smooth="yes"/>
      <point x="232" y="797"/>
      <point x="109" y="667"/>
      <point x="109" y="440" type="curve" smooth="yes"/>
      <point x="109" y="422" type="line" smooth="yes"/>
      <point x="109" y="168"/>
      <point x="268" y="-26"/>
    </contour>
    <contour>
      <point x="25" y="1073" type="line"/>
      <point x="1389" y="1073" type="line"/>
      <point x="1389" y="1218" type="line"/>
      <point x="25" y="1218" type="line"/>
    </contour>
    <component base="_danda" xOffset="1094"/>
    <component base="_cap.shiro_left"/>
  </outline>
</glyph>
<glyph name="Gha.gm" format="2">
  <advance width="1583"/>
  <unicode hex="0A18"/>
  <anchor x="1683" y="100" name="bottom"/>
  <anchor x="1411" y="100" name="bottom1"/>
  <anchor x="1529" y="1200" name="top"/>
  <outline>
    <contour>
      <point x="504" y="215" type="curve" smooth="yes"/>
      <point x="587" y="215"/>
      <point x="656" y="236"/>
      <point x="697" y="259" type="curve"/>
      <point x="736" y="394" type="line"/>
      <point x="818" y="397" type="line"/>
      <point x="761" y="501" type="line"/>
      <point x="719" y="424"/>
      <point x="645" y="380"/>
      <point x="528" y="380" type="curve" smooth="yes"/>
      <point x="418" y="380"/>
      <point x="331" y="423"/>
      <point x="294" y="491" type="curve"/>
      <point x="299" y="449" type="line"/>
      <point x="350" y="566"/>
      <point x="376" y="718"/>
      <point x="376" y="937" type="curve" smooth="yes"/>
      <point x="376" y="1024"/>
      <point x="372" y="1118"/>
      <point x="364" y="1218" type="curve"/>
      <point x="32" y="1218" type="line"/>
      <point x="36" y="1073" type="line"/>
      <point x="176" y="1073" type="line"/>
      <point x="180" y="1013"/>
      <point x="182" y="953"/>
      <point x="182" y="896" type="curve" smooth="yes"/>
      <point x="182" y="686"/>
      <point x="160" y="534"/>
      <point x="101" y="407" type="curve"/>
      <point x="190" y="284"/>
      <point x="330" y="215"/>
    </contour>
    <contour>
      <point x="1047" y="214" type="curve" smooth="yes"/>
      <point x="1114" y="214"/>
      <point x="1168" y="234"/>
      <point x="1191" y="246" type="curve"/>
      <point x="1232" y="370" type="line"/>
      <point x="1255" y="370" type="line"/>
      <point x="1247" y="437" type="line"/>
      <point x="1219" y="408"/>
      <point x="1163" y="379"/>
      <point x="1079" y="379" type="curve" smooth="yes"/>
      <point x="983" y="379"/>
      <point x="922" y="416"/>
      <point x="896" y="469" type="curve"/>
      <point x="723" y="437" type="line"/>
      <point x="739" y="312"/>
      <point x="847" y="214"/>
    </contour>
    <contour>
      <point x="904" y="1204" type="line"/>
      <point x="712" y="1174" type="line"/>
      <point x="712" y="893" type="line" smooth="yes"/>
      <point x="712" y="760"/>
      <point x="714" y="549"/>
      <point x="717" y="417" type="curve"/>
      <point x="903" y="420" type="line"/>
      <point x="903" y="587"/>
      <point x="904" y="749"/>
      <point x="904" y="896" type="curve" smooth="yes"/>
    </contour>
    <component base="_danda" xOffset="1056"/>
    <component base="_cap.shiro_left"/>
  </outline>
</glyph>
<glyph name="Nga.gm" format="2">
  <advance width="1231"/>
  <unicode hex="0A19"/>
  <anchor x="1142" y="75" name="bottom"/>
  <anchor x="1242" y="50" name="bottom1"/>
  <anchor x="1173" y="1200" name="top"/>
  <outline>
    <contour>
      <point x="34" y="1073" type="line"/>
      <point x="287" y="1073" type="line"/>
      <point x="292" y="1076" type="line"/>
      <point x="1194" y="1072" type="line"/>
      <point x="1194" y="1218" type="line"/>
      <point x="34" y="1218" type="line"/>
    </contour>
    <contour>
      <point x="517" y="-6" type="curve" smooth="yes"/>
      <point x="713" y="-6"/>
      <point x="839" y="54"/>
      <point x="926" y="123" type="curve"/>
      <point x="939" y="147" type="line"/>
      <point x="1054" y="227"/>
      <point x="1119" y="354"/>
      <point x="1119" y="506" type="curve" smooth="yes"/>
      <point x="1119" y="532" type="line" smooth="yes"/>
      <point x="1119" y="750"/>
      <point x="992" y="879"/>
      <point x="722" y="879" type="curve" smooth="yes"/>
      <point x="358" y="879" type="line"/>
      <point x="358" y="1153" type="line"/>
      <point x="167" y="1153" type="line"/>
      <point x="167" y="719" type="line"/>
      <point x="684" y="719" type="line" smooth="yes"/>
      <point x="851" y="719"/>
      <point x="928" y="653"/>
      <point x="928" y="521" type="curve" smooth="yes"/>
      <point x="928" y="511" type="line" smooth="yes"/>
      <point x="928" y="425"/>
      <point x="897" y="356"/>
      <point x="845" y="304" type="curve"/>
      <point x="842" y="261" type="line"/>
      <point x="786" y="197"/>
      <point x="690" y="150"/>
      <point x="526" y="150" type="curve" smooth="yes"/>
      <point x="381" y="150"/>
      <point x="311" y="192"/>
      <point x="311" y="268" type="curve" smooth="yes"/>
      <point x="311" y="270" type="line" smooth="yes"/>
      <point x="311" y="347"/>
      <point x="368" y="384"/>
      <point x="490" y="384" type="curve" smooth="yes"/>
      <point x="634" y="384"/>
      <point x="759" y="308"/>
      <point x="837" y="181" type="curve"/>
      <point x="943" y="261" type="line"/>
      <point x="845" y="456"/>
      <point x="668" y="540"/>
      <point x="452" y="540" type="curve" smooth="yes"/>
      <point x="214" y="540"/>
      <point x="119" y="424"/>
      <point x="119" y="268" type="curve" smooth="yes"/>
      <point x="119" y="265" type="line" smooth="yes"/>
      <point x="119" y="98"/>
      <point x="252" y="-6"/>
    </contour>
    <contour>
      <point x="950" y="-105" type="line"/>
      <point x="1149" y="-105" type="line"/>
      <point x="958" y="268" type="line"/>
      <point x="840" y="160" type="line"/>
    </contour>
    <component base="_cap.shiro_left"/>
    <component base="_cap.shiro_right" xOffset="979"/>
  </outline>
</glyph>
<glyph name="Ca.gm" format="2">
  <advance width="1281"/>
  <unicode hex="0A1A"/>
  <anchor x="1229" y="100" name="bottom"/>
  <anchor x="1290" y="100" name="bottom1"/>
  <anchor x="1233" y="1200" name="top"/>
  <outline>
    <contour>
      <point x="679" y="-25" type="curve" smooth="yes"/>
      <point x="977" y="-25"/>
      <point x="1129" y="111"/>
      <point x="1129" y="377" type="curve" smooth="yes"/>
      <point x="1129" y="1153" type="line"/>
      <point x="939" y="1153" type="line"/>
      <point x="939" y="665" type="line"/>
      <point x="944" y="658" type="line"/>
      <point x="944" y="378" type="line" smooth="yes"/>
      <point x="944" y="220"/>
      <point x="856" y="140"/>
      <point x="677" y="140" type="curve" smooth="yes"/>
      <point x="451" y="140"/>
      <point x="323" y="284"/>
      <point x="323" y="539" type="curve" smooth="yes"/>
      <point x="323" y="934" type="line"/>
      <point x="133" y="901" type="line"/>
      <point x="133" y="542" type="line" smooth="yes"/>
      <point x="133" y="182"/>
      <point x="335" y="-25"/>
    </contour>
    <contour>
      <point x="229" y="575" type="line"/>
      <point x="1039" y="575" type="line"/>
      <point x="1039" y="738" type="line"/>
      <point x="229" y="738" type="line"/>
    </contour>
    <contour>
      <point x="26" y="1073" type="line"/>
      <point x="1240" y="1073" type="line"/>
      <point x="1240" y="1218" type="line"/>
      <point x="26" y="1218" type="line"/>
    </contour>
    <component base="_cap.shiro_left"/>
    <component base="_cap.shiro_right" xOffset="1024"/>
  </outline>
</glyph>
<glyph name="Cha.gm" format="2">
  <advance width="1281"/>
  <unicode hex="0A1B"/>
  <anchor x="1218" y="100" name="bottom"/>
  <anchor x="1269" y="100" name="bottom1"/>
  <anchor x="1195" y="1200" name="top"/>
  <outline>
    <contour>
      <point x="653" y="-26" type="line"/>
      <point x="825" y="-26" type="line" smooth="yes"/>
      <point x="1068" y="-26"/>
      <point x="1182" y="73"/>
      <point x="1182" y="257" type="curve" smooth="yes"/>
      <point x="1182" y="262" type="line" smooth="yes"/>
      <point x="1182" y="445"/>
      <point x="1053" y="537"/>
      <point x="858" y="537" type="curve" smooth="yes"/>
      <point x="471" y="537" type="line" smooth="yes"/>
      <point x="394" y="537"/>
      <point x="327" y="567"/>
      <point x="327" y="643" type="curve" smooth="yes"/>
      <point x="327" y="714"/>
      <point x="377" y="750"/>
      <point x="465" y="750" type="curve" smooth="yes"/>
      <point x="1092" y="750" type="line"/>
      <point x="1092" y="1153" type="line"/>
      <point x="899" y="1153" type="line"/>
      <point x="899" y="894" type="line"/>
      <point x="395" y="894" type="line" smooth="yes"/>
      <point x="227" y="894"/>
      <point x="129" y="811"/>
      <point x="129" y="677" type="curve" smooth="yes"/>
      <point x="129" y="547"/>
      <point x="228" y="480"/>
      <point x="370" y="477" type="curve"/>
      <point x="370" y="465" type="line"/>
      <point x="501" y="393" type="line"/>
      <point x="838" y="393" type="line" smooth="yes"/>
      <point x="946" y="393"/>
      <point x="997" y="342"/>
      <point x="997" y="258" type="curve" smooth="yes"/>
      <point x="997" y="254" type="line" smooth="yes"/>
      <point x="997" y="166"/>
      <point x="935" y="118"/>
      <point x="834" y="118" type="curve" smooth="yes"/>
      <point x="653" y="118" type="line"/>
    </contour>
    <contour>
      <point x="501" y="-26" type="curve"/>
      <point x="663" y="-26" type="line"/>
      <point x="663" y="118" type="line"/>
      <point x="474" y="118" type="line" smooth="yes"/>
      <point x="369" y="118"/>
      <point x="304" y="163"/>
      <point x="304" y="254" type="curve" smooth="yes"/>
      <point x="304" y="258" type="line" smooth="yes"/>
      <point x="304" y="342"/>
      <point x="363" y="393"/>
      <point x="462" y="393" type="curve" smooth="yes"/>
      <point x="562" y="393" type="line"/>
      <point x="562" y="474" type="line"/>
      <point x="364" y="474" type="line" smooth="yes"/>
      <point x="231" y="474"/>
      <point x="119" y="393"/>
      <point x="119" y="244" type="curve" smooth="yes"/>
      <point x="119" y="240" type="line" smooth="yes"/>
      <point x="119" y="65"/>
      <point x="243" y="-26"/>
    </contour>
    <contour>
      <point x="572" y="40" type="line"/>
      <point x="734" y="40" type="line"/>
      <point x="734" y="469" type="line"/>
      <point x="572" y="469" type="line"/>
    </contour>
    <contour>
      <point x="41" y="1073" type="line"/>
      <point x="990" y="1077" type="line"/>
      <point x="994" y="1073" type="line"/>
      <point x="1252" y="1073" type="line"/>
      <point x="1252" y="1218" type="line"/>
      <point x="38" y="1218" type="line"/>
    </contour>
    <component base="_cap.shiro_left"/>
    <component base="_cap.shiro_right" xOffset="1024"/>
  </outline>
</glyph>
<glyph name="Ja.gm" format="2">
  <advance width="1244"/>
  <unicode hex="0A1C"/>
  <anchor x="1344" y="100" name="bottom"/>
  <anchor x="1239" y="100" name="bottom1"/>
  <anchor x="1191" y="1200" name="top"/>
  <outline>
    <contour>
      <point x="130" y="0" type="curve"/>
      <point x="324" y="0" type="line"/>
      <point x="345" y="161"/>
      <point x="357" y="358"/>
      <point x="357" y="539" type="curve" smooth="yes"/>
      <point x="357" y="673"/>
      <point x="349" y="811"/>
      <point x="335" y="922" type="curve"/>
      <point x="143" y="890" type="line"/>
      <point x="155" y="789"/>
      <point x="163" y="668"/>
      <point x="163" y="545" type="curve" smooth="yes"/>
      <point x="163" y="364"/>
      <point x="152" y="166"/>
    </contour>
    <contour>
      <point x="265" y="530" type="line"/>
      <point x="996" y="530" type="line"/>
      <point x="996" y="693" type="line"/>
      <point x="265" y="693" type="line"/>
    </contour>
    <contour>
      <point x="31" y="1073" type="line"/>
      <point x="1012" y="1073" type="line"/>
      <point x="1012" y="1218" type="line"/>
      <point x="31" y="1218" type="line"/>
    </contour>
    <component base="_danda" xOffset="717"/>
    <component base="_cap.shiro_left"/>
  </outline>
</glyph>
<glyph name="Jha.gm" format="2">
  <advance width="1227"/>
  <unicode hex="0A1D"/>
  <anchor x="1017" y="-8" name="bottom"/>
  <anchor x="1237" y="5" name="bottom1"/>
  <anchor x="1213" y="1200" name="top"/>
  <outline>
    <contour>
      <point x="597" y="44" type="curve" smooth="yes"/>
      <point x="961" y="44"/>
      <point x="1111" y="155"/>
      <point x="1111" y="382" type="curve" smooth="yes"/>
      <point x="1111" y="386" type="line" smooth="yes"/>
      <point x="1111" y="558"/>
      <point x="1007" y="675"/>
      <point x="803" y="694" type="curve"/>
      <point x="803" y="730" type="line"/>
      <point x="615" y="730" type="line"/>
      <point x="397" y="730" type="line"/>
      <point x="397" y="707" type="line"/>
      <point x="312" y="706"/>
      <point x="214" y="692"/>
      <point x="142" y="675" type="curve"/>
      <point x="127" y="517" type="line"/>
      <point x="299" y="548"/>
      <point x="416" y="567"/>
      <point x="594" y="567" type="curve" smooth="yes"/>
      <point x="842" y="567"/>
      <point x="915" y="496"/>
      <point x="915" y="388" type="curve" smooth="yes"/>
      <point x="915" y="386" type="line" smooth="yes"/>
      <point x="915" y="262"/>
      <point x="832" y="209"/>
      <point x="597" y="209" type="curve" smooth="yes"/>
      <point x="429" y="209"/>
      <point x="299" y="232"/>
      <point x="137" y="281" type="curve"/>
      <point x="151" y="116" type="line"/>
      <point x="302" y="72"/>
      <point x="451" y="44"/>
    </contour>
    <contour>
      <point x="536" y="-192" type="line"/>
      <point x="802" y="-193" type="line"/>
      <point x="691" y="-92"/>
      <point x="569" y="-2"/>
      <point x="481" y="55" type="curve"/>
      <point x="488" y="110" type="line"/>
      <point x="232" y="115" type="line"/>
    </contour>
    <contour>
      <point x="472" y="706" type="curve"/>
      <point x="614" y="730" type="line"/>
      <point x="447" y="730"/>
      <point x="329" y="819"/>
      <point x="329" y="975" type="curve" smooth="yes"/>
      <point x="329" y="1138" type="line"/>
      <point x="115" y="1138" type="line"/>
      <point x="117" y="989" type="line" smooth="yes"/>
      <point x="119" y="817"/>
      <point x="255" y="709"/>
    </contour>
    <contour>
      <point x="16" y="1073" type="line"/>
      <point x="223" y="1073" type="line"/>
      <point x="229" y="1081" type="line"/>
      <point x="1002" y="1081" type="line"/>
      <point x="1012" y="1073" type="line"/>
      <point x="1185" y="1073" type="line"/>
      <point x="1185" y="1218" type="line"/>
      <point x="16" y="1218" type="line"/>
    </contour>
    <contour>
      <point x="1108" y="992" type="curve" smooth="yes"/>
      <point x="1110" y="1138" type="line"/>
      <point x="896" y="1138" type="line"/>
      <point x="896" y="975" type="line" smooth="yes"/>
      <point x="896" y="814"/>
      <point x="785" y="730"/>
      <point x="616" y="730" type="curve"/>
      <point x="757" y="696" type="line"/>
      <point x="993" y="698"/>
      <point x="1106" y="816"/>
    </contour>
    <component base="_cap.shiro_left"/>
    <component base="_cap.shiro_right" xOffset="970"/>
  </outline>
</glyph>
<glyph name="Nya.gm" format="2">
  <advance width="1239"/>
  <unicode hex="0A1E"/>
  <anchor x="1210" y="93" name="bottom"/>
  <anchor x="1314" y="95" name="bottom1"/>
  <anchor x="1193" y="1200" name="top"/>
  <outline>
    <contour>
      <point x="408" y="343" type="curve"/>
      <point x="1053" y="343" type="line"/>
      <point x="1053" y="501" type="line"/>
      <point x="428" y="501" type="line" smooth="yes"/>
      <point x="343" y="501"/>
      <point x="289" y="525"/>
      <point x="289" y="597" type="curve" smooth="yes"/>
      <point x="289" y="665"/>
      <point x="340" y="693"/>
      <point x="430" y="693" type="curve" smooth="yes"/>
      <point x="1089" y="693" type="line"/>
      <point x="1089" y="1140" type="line"/>
      <point x="900" y="1140" type="line"/>
      <point x="900" y="847" type="line"/>
      <point x="410" y="847" type="line" smooth="yes"/>
      <point x="209" y="847"/>
      <point x="91" y="760"/>
      <point x="91" y="597" type="curve" smooth="yes"/>
      <point x="91" y="426"/>
      <point x="209" y="343"/>
    </contour>
    <contour>
      <point x="915" y="-29" type="curve" smooth="yes"/>
      <point x="973" y="-29"/>
      <point x="1045" y="-21"/>
      <point x="1104" y="-6" type="curve"/>
      <point x="1118" y="155" type="line"/>
      <point x="1056" y="140"/>
      <point x="992" y="133"/>
      <point x="938" y="133" type="curve" smooth="yes"/>
      <point x="746" y="133"/>
      <point x="608" y="196"/>
      <point x="579" y="403" type="curve"/>
      <point x="378" y="405" type="line"/>
      <point x="439" y="85"/>
      <point x="630" y="-29"/>
    </contour>
    <contour>
      <point x="353" y="745" type="curve"/>
      <point x="538" y="785" type="line"/>
      <point x="446" y="872"/>
      <point x="380" y="1008"/>
      <point x="348" y="1170" type="curve"/>
      <point x="146" y="1172" type="line"/>
      <point x="174" y="1008"/>
      <point x="251" y="861"/>
    </contour>
    <contour>
      <point x="53" y="1073" type="line"/>
      <point x="265" y="1073" type="line"/>
      <point x="278" y="1080" type="line"/>
      <point x="991" y="1080" type="line"/>
      <point x="1005" y="1073" type="line"/>
      <point x="1188" y="1073" type="line"/>
      <point x="1188" y="1218" type="line"/>
      <point x="53" y="1218" type="line"/>
    </contour>
    <component base="_cap.shiro_left"/>
    <component base="_cap.shiro_right" xOffset="982"/>
  </outline>
</glyph>
<glyph name="Tta.gm" format="2">
  <advance width="1131"/>
  <unicode hex="0A1F"/>
  <anchor x="1153" y="100" name="bottom"/>
  <anchor x="1232" y="100" name="bottom1"/>
  <anchor x="1084" y="1200" name="top"/>
  <outline>
    <contour>
      <point x="655" y="-19" type="curve" smooth="yes"/>
      <point x="815" y="-19"/>
      <point x="944" y="15"/>
      <point x="1020" y="58" type="curve"/>
      <point x="1033" y="233" type="line"/>
      <point x="942" y="188"/>
      <point x="806" y="146"/>
      <point x="680" y="146" type="curve" smooth="yes"/>
      <point x="454" y="146"/>
      <point x="313" y="244"/>
      <point x="313" y="424" type="curve" smooth="yes"/>
      <point x="313" y="555" type="line"/>
      <point x="259" y="488" type="line"/>
      <point x="456" y="589"/>
      <point x="716" y="645"/>
      <point x="980" y="673" type="curve"/>
      <point x="980" y="1142" type="line"/>
      <point x="790" y="1142" type="line"/>
      <point x="790" y="768" type="line"/>
      <point x="861" y="825" type="line"/>
      <point x="610" y="792"/>
      <point x="334" y="728"/>
      <point x="121" y="625" type="curve"/>
      <point x="121" y="451" type="line" smooth="yes"/>
      <point x="121" y="161"/>
      <point x="308" y="-19"/>
    </contour>
    <contour>
      <point x="25" y="1073" type="line"/>
      <point x="1084" y="1073" type="line"/>
      <point x="1084" y="1218" type="line"/>
      <point x="25" y="1218" type="line"/>
    </contour>
    <component base="_cap.shiro_left"/>
    <component base="_cap.shiro_right" xOffset="885"/>
  </outline>
</glyph>
<glyph name="Ttha.gm" format="2">
  <advance width="1249"/>
  <unicode hex="0A20"/>
  <anchor x="1166" y="100" name="bottom"/>
  <anchor x="1237" y="100" name="bottom1"/>
  <anchor x="826" y="1200" name="top"/>
  <outline>
    <contour>
      <point x="626" y="-30" type="curve" smooth="yes"/>
      <point x="965" y="-30"/>
      <point x="1142" y="126"/>
      <point x="1142" y="410" type="curve" smooth="yes"/>
      <point x="1142" y="422" type="line" smooth="yes"/>
      <point x="1142" y="661"/>
      <point x="993" y="812"/>
      <point x="627" y="872" type="curve"/>
      <point x="269" y="813"/>
      <point x="111" y="660"/>
      <point x="111" y="422" type="curve" smooth="yes"/>
      <point x="111" y="409" type="line" smooth="yes"/>
      <point x="111" y="126"/>
      <point x="288" y="-30"/>
    </contour>
    <contour>
      <point x="627" y="135" type="curve" smooth="yes"/>
      <point x="421" y="135"/>
      <point x="305" y="230"/>
      <point x="305" y="408" type="curve" smooth="yes"/>
      <point x="305" y="420" type="line" smooth="yes"/>
      <point x="305" y="572"/>
      <point x="419" y="670"/>
      <point x="627" y="711" type="curve"/>
      <point x="843" y="671"/>
      <point x="949" y="572"/>
      <point x="949" y="420" type="curve" smooth="yes"/>
      <point x="949" y="409" type="line" smooth="yes"/>
      <point x="949" y="231"/>
      <point x="835" y="135"/>
    </contour>
    <contour>
      <point x="533" y="782" type="line"/>
      <point x="726" y="782" type="line"/>
      <point x="726" y="1154" type="line"/>
      <point x="533" y="1154" type="line"/>
    </contour>
    <contour>
      <point x="28" y="1073" type="line"/>
      <point x="1215" y="1073" type="line"/>
      <point x="1215" y="1218" type="line"/>
      <point x="28" y="1218" type="line"/>
    </contour>
    <component base="_cap.shiro_left"/>
    <component base="_cap.shiro_right" xOffset="993"/>
  </outline>
</glyph>
<glyph name="Dda.gm" format="2">
  <advance width="1191"/>
  <unicode hex="0A21"/>
  <anchor x="1131" y="100" name="bottom"/>
  <anchor x="1193" y="100" name="bottom1"/>
  <anchor x="1160" y="1200" name="top"/>
  <outline>
    <contour>
      <point x="534" y="-28" type="curve" smooth="yes"/>
      <point x="894" y="-28"/>
      <point x="1078" y="117"/>
      <point x="1078" y="369" type="curve" smooth="yes"/>
      <point x="1078" y="386" type="line" smooth="yes"/>
      <point x="1078" y="594"/>
      <point x="949" y="738"/>
      <point x="742" y="738" type="curve"/>
      <point x="809" y="685" type="line"/>
      <point x="809" y="737" type="line"/>
      <point x="949" y="747"/>
      <point x="1056" y="852"/>
      <point x="1056" y="1029" type="curve" smooth="yes"/>
      <point x="1056" y="1151" type="line"/>
      <point x="860" y="1151" type="line"/>
      <point x="860" y="1024" type="line" smooth="yes"/>
      <point x="860" y="899"/>
      <point x="792" y="816"/>
      <point x="635" y="816" type="curve" smooth="yes"/>
      <point x="204" y="816" type="line"/>
      <point x="204" y="656" type="line"/>
      <point x="635" y="656" type="line" smooth="yes"/>
      <point x="797" y="656"/>
      <point x="886" y="544"/>
      <point x="886" y="395" type="curve" smooth="yes"/>
      <point x="886" y="379" type="line" smooth="yes"/>
      <point x="886" y="212"/>
      <point x="784" y="132"/>
      <point x="527" y="132" type="curve" smooth="yes"/>
      <point x="358" y="132"/>
      <point x="279" y="172"/>
      <point x="279" y="234" type="curve" smooth="yes"/>
      <point x="279" y="237" type="line" smooth="yes"/>
      <point x="279" y="299"/>
      <point x="343" y="335"/>
      <point x="494" y="335" type="curve" smooth="yes"/>
      <point x="643" y="335"/>
      <point x="769" y="280"/>
      <point x="827" y="170" type="curve"/>
      <point x="865" y="180" type="line"/>
      <point x="853" y="400"/>
      <point x="739" y="494"/>
      <point x="431" y="494" type="curve" smooth="yes"/>
      <point x="196" y="494"/>
      <point x="89" y="399"/>
      <point x="89" y="240" type="curve" smooth="yes"/>
      <point x="89" y="232" type="line" smooth="yes"/>
      <point x="89" y="77"/>
      <point x="234" y="-28"/>
    </contour>
    <contour>
      <point x="49" y="1073" type="line"/>
      <point x="919" y="1076" type="line"/>
      <point x="927" y="1073" type="line"/>
      <point x="1175" y="1073" type="line"/>
      <point x="1180" y="1218" type="line"/>
      <point x="43" y="1218" type="line"/>
    </contour>
    <component base="_cap.shiro_left"/>
    <component base="_cap.shiro_right" xOffset="936"/>
  </outline>
</glyph>
<glyph name="Ddha.gm" format="2">
  <advance width="1230"/>
  <unicode hex="0A22"/>
  <anchor x="1202" y="95" name="bottom"/>
  <anchor x="1300" y="100" name="bottom1"/>
  <anchor x="1171" y="1200" name="top"/>
  <outline>
    <contour>
      <point x="733" y="-32" type="curve" smooth="yes"/>
      <point x="1000" y="-32"/>
      <point x="1135" y="69"/>
      <point x="1135" y="229" type="curve" smooth="yes"/>
      <point x="1135" y="235" type="line" smooth="yes"/>
      <point x="1135" y="399"/>
      <point x="1034" y="496"/>
      <point x="808" y="496" type="curve" smooth="yes"/>
      <point x="540" y="496"/>
      <point x="425" y="404"/>
      <point x="401" y="186" type="curve"/>
      <point x="454" y="154" type="line"/>
      <point x="490" y="284"/>
      <point x="605" y="338"/>
      <point x="746" y="338" type="curve" smooth="yes"/>
      <point x="881" y="338"/>
      <point x="944" y="300"/>
      <point x="944" y="233" type="curve" smooth="yes"/>
      <point x="944" y="230" type="line" smooth="yes"/>
      <point x="944" y="164"/>
      <point x="872" y="126"/>
      <point x="731" y="126" type="curve" smooth="yes"/>
      <point x="470" y="126"/>
      <point x="321" y="263"/>
      <point x="321" y="543" type="curve"/>
      <point x="321" y="970" type="line"/>
      <point x="128" y="937" type="line"/>
      <point x="128" y="567" type="line" smooth="yes"/>
      <point x="128" y="175"/>
      <point x="359" y="-32"/>
    </contour>
    <contour>
      <point x="226" y="656" type="line"/>
      <point x="1067" y="656" type="line"/>
      <point x="1067" y="1153" type="line"/>
      <point x="875" y="1153" type="line"/>
      <point x="875" y="812" type="line"/>
      <point x="226" y="812" type="line"/>
    </contour>
    <contour>
      <point x="35" y="1073" type="line"/>
      <point x="1192" y="1073" type="line"/>
      <point x="1192" y="1218" type="line"/>
      <point x="35" y="1218" type="line"/>
    </contour>
    <component base="_cap.shiro_left"/>
    <component base="_cap.shiro_right" xOffset="973"/>
  </outline>
</glyph>
<glyph name="Nna.gm" format="2">
  <advance width="1180"/>
  <unicode hex="0A23"/>
  <anchor x="1193" y="100" name="bottom"/>
  <anchor x="1262" y="100" name="bottom1"/>
  <anchor x="1153" y="1200" name="top"/>
  <outline>
    <contour>
      <point x="673" y="-27" type="curve" smooth="yes"/>
      <point x="827" y="-27"/>
      <point x="974" y="2"/>
      <point x="1068" y="50" type="curve"/>
      <point x="1081" y="227" type="line"/>
      <point x="970" y="171"/>
      <point x="825" y="138"/>
      <point x="691" y="138" type="curve" smooth="yes"/>
      <point x="429" y="138"/>
      <point x="295" y="221"/>
      <point x="295" y="367" type="curve" smooth="yes"/>
      <point x="295" y="425" type="line"/>
      <point x="232" y="341" type="line"/>
      <point x="415" y="391"/>
      <point x="603" y="424"/>
      <point x="795" y="443" type="curve"/>
      <point x="795" y="740" type="line"/>
      <point x="607" y="744" type="line"/>
      <point x="607" y="578" type="line"/>
      <point x="430" y="554"/>
      <point x="261" y="520"/>
      <point x="105" y="476" type="curve"/>
      <point x="105" y="374" type="line" smooth="yes"/>
      <point x="105" y="123"/>
      <point x="302" y="-27"/>
    </contour>
    <contour>
      <point x="947" y="646" type="curve" smooth="yes"/>
      <point x="1061" y="646" type="line"/>
      <point x="1061" y="801" type="line"/>
      <point x="948" y="801" type="line" smooth="yes"/>
      <point x="567" y="801"/>
      <point x="414" y="890"/>
      <point x="414" y="1086" type="curve" smooth="yes"/>
      <point x="414" y="1160" type="line"/>
      <point x="212" y="1160" type="line"/>
      <point x="212" y="1092" type="line" smooth="yes"/>
      <point x="212" y="815"/>
      <point x="430" y="646"/>
    </contour>
    <contour>
      <point x="16" y="1073" type="line"/>
      <point x="1140" y="1073" type="line"/>
      <point x="1144" y="1218" type="line"/>
      <point x="16" y="1218" type="line"/>
    </contour>
    <component base="_cap.shiro_left"/>
    <component base="_cap.shiro_right" xOffset="924"/>
  </outline>
</glyph>
<glyph name="Ta.gm" format="2">
  <advance width="1107"/>
  <unicode hex="0A24"/>
  <anchor x="1063" y="100" name="bottom"/>
  <anchor x="1137" y="100" name="bottom1"/>
  <anchor x="1082" y="1200" name="top"/>
  <outline>
    <contour>
      <point x="41" y="1073" type="line"/>
      <point x="1071" y="1073" type="line"/>
      <point x="1071" y="1218" type="line"/>
      <point x="41" y="1218" type="line"/>
    </contour>
    <contour>
      <point x="501" y="-17" type="curve" smooth="yes"/>
      <point x="837" y="-17"/>
      <point x="999" y="109"/>
      <point x="999" y="338" type="curve" smooth="yes"/>
      <point x="999" y="350" type="line" smooth="yes"/>
      <point x="999" y="538"/>
      <point x="888" y="642"/>
      <point x="699" y="656" type="curve"/>
      <point x="738" y="606" type="line"/>
      <point x="738" y="656" type="line"/>
      <point x="887" y="666"/>
      <point x="979" y="772"/>
      <point x="979" y="969" type="curve" smooth="yes"/>
      <point x="979" y="1148" type="line"/>
      <point x="781" y="1148" type="line"/>
      <point x="781" y="975" type="line" smooth="yes"/>
      <point x="781" y="835"/>
      <point x="725" y="737"/>
      <point x="558" y="737" type="curve" smooth="yes"/>
      <point x="170" y="737" type="line"/>
      <point x="170" y="568" type="line"/>
      <point x="566" y="568" type="line" smooth="yes"/>
      <point x="722" y="568"/>
      <point x="804" y="495"/>
      <point x="804" y="369" type="curve" smooth="yes"/>
      <point x="804" y="356" type="line" smooth="yes"/>
      <point x="804" y="222"/>
      <point x="698" y="151"/>
      <point x="488" y="151" type="curve" smooth="yes"/>
      <point x="348" y="151"/>
      <point x="204" y="190"/>
      <point x="80" y="248" type="curve"/>
      <point x="93" y="64" type="line"/>
      <point x="195" y="16"/>
      <point x="347" y="-17"/>
    </contour>
    <component base="_cap.shiro_left"/>
    <component base="_cap.shiro_right" xOffset="853"/>
  </outline>
</glyph>
<glyph name="Tha.gm" format="2">
  <advance width="1304"/>
  <unicode hex="0A25"/>
  <anchor x="1404" y="100" name="bottom"/>
  <anchor x="1262" y="100" name="bottom1"/>
  <anchor x="1250" y="1200" name="top"/>
  <outline>
    <contour>
      <point x="282" y="649" type="line"/>
      <point x="1051" y="649" type="line"/>
      <point x="1051" y="808" type="line"/>
      <point x="277" y="808" type="line"/>
    </contour>
    <contour>
      <point x="222" y="1073" type="line"/>
      <point x="283" y="1073" type="line"/>
      <point x="291" y="1082" type="line"/>
      <point x="1052" y="1082" type="line"/>
      <point x="1061" y="1073" type="line"/>
      <point x="1114" y="1073" type="line"/>
      <point x="1114" y="1218" type="line"/>
      <point x="222" y="1218" type="line"/>
    </contour>
    <contour>
      <point x="630" y="182" type="curve" smooth="yes"/>
      <point x="734" y="182"/>
      <point x="840" y="201"/>
      <point x="909" y="232" type="curve"/>
      <point x="953" y="372" type="line"/>
      <point x="970" y="372" type="line"/>
      <point x="964" y="432" type="line"/>
      <point x="890" y="379"/>
      <point x="765" y="347"/>
      <point x="638" y="347" type="curve" smooth="yes"/>
      <point x="487" y="347"/>
      <point x="355" y="403"/>
      <point x="286" y="479" type="curve"/>
      <point x="308" y="429" type="line"/>
      <point x="356" y="550"/>
      <point x="380" y="717"/>
      <point x="380" y="937" type="curve" smooth="yes"/>
      <point x="380" y="1024"/>
      <point x="376" y="1118"/>
      <point x="367" y="1218" type="curve"/>
      <point x="34" y="1218" type="line"/>
      <point x="34" y="1073" type="line"/>
      <point x="179" y="1073" type="line"/>
      <point x="183" y="1013"/>
      <point x="185" y="953"/>
      <point x="185" y="896" type="curve" smooth="yes"/>
      <point x="185" y="691"/>
      <point x="153" y="514"/>
      <point x="101" y="391" type="curve"/>
      <point x="217" y="256"/>
      <point x="400" y="182"/>
    </contour>
    <component base="_danda" xOffset="777"/>
    <component base="_cap.shiro_left"/>
  </outline>
</glyph>
<glyph name="Da.gm" format="2">
  <advance width="1203"/>
  <unicode hex="0A26"/>
  <anchor x="1183" y="95" name="bottom"/>
  <anchor x="1283" y="100" name="bottom1"/>
  <anchor x="1163" y="1200" name="top"/>
  <outline>
    <contour>
      <point x="728" y="-23" type="curve" smooth="yes"/>
      <point x="874" y="-23"/>
      <point x="1001" y="5"/>
      <point x="1090" y="58" type="curve"/>
      <point x="1103" y="238" type="line"/>
      <point x="1012" y="187"/>
      <point x="877" y="145"/>
      <point x="742" y="145" type="curve" smooth="yes"/>
      <point x="471" y="145"/>
      <point x="327" y="262"/>
      <point x="327" y="498" type="curve" smooth="yes"/>
      <point x="327" y="633" type="line"/>
      <point x="325" y="647" type="line"/>
      <point x="325" y="911" type="line"/>
      <point x="134" y="879" type="line"/>
      <point x="134" y="517" type="line" smooth="yes"/>
      <point x="134" y="158"/>
      <point x="336" y="-23"/>
    </contour>
    <contour>
      <point x="235" y="547" type="line"/>
      <point x="1059" y="547" type="line"/>
      <point x="1059" y="1152" type="line"/>
      <point x="870" y="1152" type="line"/>
      <point x="870" y="705" type="line"/>
      <point x="235" y="705" type="line"/>
    </contour>
    <contour>
      <point x="21" y="1073" type="line"/>
      <point x="1171" y="1073" type="line"/>
      <point x="1171" y="1218" type="line"/>
      <point x="21" y="1218" type="line"/>
    </contour>
    <component base="_cap.shiro_left"/>
    <component base="_cap.shiro_right" xOffset="947"/>
  </outline>
</glyph>
<glyph name="Dha.gm" format="2">
  <advance width="1254"/>
  <unicode hex="0A27"/>
  <anchor x="1354" y="100" name="bottom"/>
  <anchor x="1257" y="100" name="bottom1"/>
  <anchor x="1200" y="1200" name="top"/>
  <outline>
    <contour>
      <point x="226" y="1073" type="line"/>
      <point x="1067" y="1073" type="line"/>
      <point x="1067" y="1218" type="line"/>
      <point x="222" y="1218" type="line"/>
    </contour>
    <contour>
      <point x="620" y="182" type="curve" smooth="yes"/>
      <point x="710" y="182"/>
      <point x="797" y="200"/>
      <point x="861" y="229" type="curve"/>
      <point x="905" y="369" type="line"/>
      <point x="922" y="369" type="line"/>
      <point x="916" y="429" type="line"/>
      <point x="842" y="378"/>
      <point x="740" y="347"/>
      <point x="628" y="347" type="curve" smooth="yes"/>
      <point x="481" y="347"/>
      <point x="353" y="403"/>
      <point x="286" y="479" type="curve"/>
      <point x="308" y="429" type="line"/>
      <point x="356" y="550"/>
      <point x="380" y="717"/>
      <point x="380" y="937" type="curve" smooth="yes"/>
      <point x="380" y="1024"/>
      <point x="376" y="1118"/>
      <point x="367" y="1218" type="curve"/>
      <point x="34" y="1218" type="line"/>
      <point x="34" y="1073" type="line"/>
      <point x="179" y="1073" type="line"/>
      <point x="183" y="1013"/>
      <point x="185" y="953"/>
      <point x="185" y="896" type="curve" smooth="yes"/>
      <point x="185" y="691"/>
      <point x="153" y="514"/>
      <point x="101" y="391" type="curve"/>
      <point x="215" y="256"/>
      <point x="394" y="182"/>
    </contour>
    <component base="_danda" xOffset="727"/>
    <component base="_cap.shiro_left"/>
  </outline>
</glyph>
<glyph name="Na.gm" format="2">
  <advance width="1235"/>
  <unicode hex="0A28"/>
  <anchor x="1283" y="88" name="bottom"/>
  <anchor x="1242" y="100" name="bottom1"/>
  <anchor x="818" y="1200" name="top"/>
  <outline>
    <contour>
      <point x="224" y="0" type="curve"/>
      <point x="441" y="0" type="line"/>
      <point x="438" y="10" type="line"/>
      <point x="350" y="108"/>
      <point x="304" y="226"/>
      <point x="304" y="356" type="curve" smooth="yes"/>
      <point x="304" y="362" type="line" smooth="yes"/>
      <point x="304" y="544"/>
      <point x="421" y="644"/>
      <point x="621" y="705" type="curve"/>
      <point x="817" y="644"/>
      <point x="937" y="544"/>
      <point x="937" y="362" type="curve" smooth="yes"/>
      <point x="937" y="356" type="line" smooth="yes"/>
      <point x="937" y="229"/>
      <point x="891" y="111"/>
      <point x="803" y="11" type="curve"/>
      <point x="799" y="0" type="line"/>
      <point x="1016" y="0" type="line"/>
      <point x="1092" y="95"/>
      <point x="1132" y="217"/>
      <point x="1132" y="356" type="curve" smooth="yes"/>
      <point x="1132" y="361" type="line" smooth="yes"/>
      <point x="1132" y="631"/>
      <point x="953" y="794"/>
      <point x="621" y="865" type="curve"/>
      <point x="287" y="794"/>
      <point x="109" y="631"/>
      <point x="109" y="361" type="curve" smooth="yes"/>
      <point x="109" y="357" type="line" smooth="yes"/>
      <point x="109" y="213"/>
      <point x="148" y="90"/>
    </contour>
    <contour>
      <point x="527" y="766" type="line"/>
      <point x="718" y="766" type="line"/>
      <point x="718" y="1141" type="line"/>
      <point x="527" y="1141" type="line"/>
    </contour>
    <contour>
      <point x="39" y="1073" type="line"/>
      <point x="1198" y="1073" type="line"/>
      <point x="1198" y="1218" type="line"/>
      <point x="39" y="1218" type="line"/>
    </contour>
    <component base="_cap.shiro_left"/>
    <component base="_cap.shiro_right" xOffset="978"/>
  </outline>
</glyph>
<glyph name="Pa.gm" format="2">
  <advance width="1248"/>
  <unicode hex="0A2A"/>
  <anchor x="1348" y="100" name="bottom"/>
  <anchor x="1241" y="100" name="bottom1"/>
  <anchor x="1190" y="1200" name="top"/>
  <outline>
    <contour>
      <point x="610" y="190" type="curve" smooth="yes"/>
      <point x="700" y="190"/>
      <point x="787" y="208"/>
      <point x="851" y="237" type="curve"/>
      <point x="895" y="377" type="line"/>
      <point x="912" y="377" type="line"/>
      <point x="906" y="437" type="line"/>
      <point x="832" y="386"/>
      <point x="730" y="355"/>
      <point x="618" y="355" type="curve" smooth="yes"/>
      <point x="475" y="355"/>
      <point x="351" y="411"/>
      <point x="286" y="487" type="curve"/>
      <point x="308" y="429" type="line"/>
      <point x="356" y="550"/>
      <point x="380" y="717"/>
      <point x="380" y="937" type="curve" smooth="yes"/>
      <point x="380" y="1024"/>
      <point x="376" y="1118"/>
      <point x="367" y="1218" type="curve"/>
      <point x="34" y="1218" type="line"/>
      <point x="34" y="1073" type="line"/>
      <point x="179" y="1073" type="line"/>
      <point x="183" y="1013"/>
      <point x="185" y="953"/>
      <point x="185" y="896" type="curve" smooth="yes"/>
      <point x="185" y="695"/>
      <point x="153" y="522"/>
      <point x="101" y="399" type="curve"/>
      <point x="213" y="264"/>
      <point x="388" y="190"/>
    </contour>
    <component base="_danda" xOffset="721"/>
    <component base="_cap.shiro_left"/>
  </outline>
</glyph>
<glyph name="Pha.gm" format="2">
  <advance width="1196"/>
  <unicode hex="0A2B"/>
  <anchor x="1192" y="94" name="bottom"/>
  <anchor x="1275" y="100" name="bottom1"/>
  <anchor x="1133" y="1200" name="top"/>
  <outline>
    <contour>
      <point x="689" y="-28" type="curve" smooth="yes"/>
      <point x="973" y="-28"/>
      <point x="1111" y="74"/>
      <point x="1111" y="242" type="curve" smooth="yes"/>
      <point x="1111" y="249" type="line" smooth="yes"/>
      <point x="1111" y="409"/>
      <point x="1004" y="515"/>
      <point x="774" y="515" type="curve" smooth="yes"/>
      <point x="495" y="515"/>
      <point x="384" y="409"/>
      <point x="370" y="205" type="curve"/>
      <point x="423" y="165" type="line"/>
      <point x="461" y="291"/>
      <point x="571" y="357"/>
      <point x="722" y="357" type="curve" smooth="yes"/>
      <point x="855" y="357"/>
      <point x="920" y="326"/>
      <point x="920" y="247" type="curve" smooth="yes"/>
      <point x="920" y="243" type="line" smooth="yes"/>
      <point x="920" y="169"/>
      <point x="852" y="130"/>
      <point x="690" y="130" type="curve" smooth="yes"/>
      <point x="452" y="130"/>
      <point x="305" y="248"/>
      <point x="305" y="474" type="curve" smooth="yes"/>
      <point x="305" y="483" type="line" smooth="yes"/>
      <point x="305" y="640"/>
      <point x="394" y="719"/>
      <point x="557" y="719" type="curve" smooth="yes"/>
      <point x="1029" y="719" type="line"/>
      <point x="1029" y="1153" type="line"/>
      <point x="839" y="1153" type="line"/>
      <point x="839" y="874" type="line"/>
      <point x="504" y="874" type="line" smooth="yes"/>
      <point x="252" y="874"/>
      <point x="110" y="729"/>
      <point x="110" y="488" type="curve" smooth="yes"/>
      <point x="110" y="473" type="line" smooth="yes"/>
      <point x="110" y="149"/>
      <point x="340" y="-28"/>
    </contour>
    <contour>
      <point x="41" y="1073" type="line"/>
      <point x="904" y="1076" type="line"/>
      <point x="910" y="1073" type="line"/>
      <point x="1185" y="1073" type="line"/>
      <point x="1185" y="1218" type="line"/>
      <point x="41" y="1218" type="line"/>
    </contour>
    <component base="_cap.shiro_left"/>
    <component base="_cap.shiro_right" xOffset="944"/>
  </outline>
</glyph>
<glyph name="Ba.gm" format="2">
  <advance width="1299"/>
  <unicode hex="0A2C"/>
  <anchor x="1399" y="100" name="bottom"/>
  <anchor x="1317" y="100" name="bottom1"/>
  <anchor x="1245" y="1200" name="top"/>
  <outline>
    <contour>
      <point x="614" y="135" type="curve" smooth="yes"/>
      <point x="732" y="135"/>
      <point x="835" y="154"/>
      <point x="908" y="188" type="curve"/>
      <point x="947" y="315" type="line"/>
      <point x="967" y="315" type="line"/>
      <point x="958" y="375" type="line"/>
      <point x="885" y="328"/>
      <point x="778" y="300"/>
      <point x="657" y="300" type="curve" smooth="yes"/>
      <point x="426" y="300"/>
      <point x="312" y="391"/>
      <point x="312" y="529" type="curve" smooth="yes"/>
      <point x="312" y="585" type="line"/>
      <point x="277" y="516" type="line"/>
      <point x="489" y="578"/>
      <point x="760" y="623"/>
      <point x="1019" y="657" type="curve"/>
      <point x="1019" y="816" type="line"/>
      <point x="844" y="798"/>
      <point x="656" y="768"/>
      <point x="494" y="735" type="curve"/>
      <point x="494" y="730" type="line"/>
      <point x="368" y="706"/>
      <point x="231" y="675"/>
      <point x="118" y="640" type="curve"/>
      <point x="118" y="541" type="line" smooth="yes"/>
      <point x="118" y="289"/>
      <point x="304" y="135"/>
    </contour>
    <contour>
      <point x="614" y="726" type="curve"/>
      <point x="724" y="771" type="line"/>
      <point x="490" y="771"/>
      <point x="352" y="863"/>
      <point x="352" y="1020" type="curve" smooth="yes"/>
      <point x="352" y="1151" type="line"/>
      <point x="139" y="1151" type="line"/>
      <point x="139" y="1037" type="line" smooth="yes"/>
      <point x="139" y="848"/>
      <point x="272" y="731"/>
    </contour>
    <contour>
      <point x="38" y="1073" type="line"/>
      <point x="252" y="1073" type="line"/>
      <point x="263" y="1081" type="line"/>
      <point x="1027" y="1081" type="line"/>
      <point x="1044" y="1073" type="line"/>
      <point x="1074" y="1073" type="line"/>
      <point x="1071" y="1218" type="line"/>
      <point x="34" y="1218" type="line"/>
    </contour>
    <component base="_danda" xOffset="772"/>
    <component base="_cap.shiro_left"/>
  </outline>
</glyph>
<glyph name="Bha.gm" format="2">
  <advance width="1172"/>
  <unicode hex="0A2D"/>
  <anchor x="1126" y="100" name="bottom"/>
  <anchor x="1154" y="98" name="bottom1"/>
  <anchor x="1163" y="1200" name="top"/>
  <outline>
    <contour>
      <point x="521" y="-22" type="curve" smooth="yes"/>
      <point x="882" y="-22"/>
      <point x="1063" y="115"/>
      <point x="1063" y="366" type="curve" smooth="yes"/>
      <point x="1063" y="372" type="line" smooth="yes"/>
      <point x="1063" y="509"/>
      <point x="1002" y="620"/>
      <point x="907" y="679" type="curve"/>
      <point x="867" y="716" type="line"/>
      <point x="805" y="814"/>
      <point x="651" y="913"/>
      <point x="460" y="913" type="curve" smooth="yes"/>
      <point x="242" y="913"/>
      <point x="117" y="816"/>
      <point x="117" y="645" type="curve" smooth="yes"/>
      <point x="117" y="639" type="line" smooth="yes"/>
      <point x="117" y="470"/>
      <point x="242" y="371"/>
      <point x="463" y="371" type="curve" smooth="yes"/>
      <point x="649" y="371"/>
      <point x="811" y="450"/>
      <point x="875" y="568" type="curve"/>
      <point x="901" y="577" type="line"/>
      <point x="913" y="609" type="line"/>
      <point x="973" y="675"/>
      <point x="1060" y="816"/>
      <point x="1060" y="1004" type="curve" smooth="yes"/>
      <point x="1060" y="1145" type="line"/>
      <point x="860" y="1145" type="line"/>
      <point x="860" y="1012" type="line" smooth="yes"/>
      <point x="860" y="876"/>
      <point x="828" y="771"/>
      <point x="795" y="708" type="curve"/>
      <point x="776" y="674" type="line"/>
      <point x="723" y="577"/>
      <point x="619" y="523"/>
      <point x="481" y="523" type="curve" smooth="yes"/>
      <point x="372" y="523"/>
      <point x="300" y="558"/>
      <point x="300" y="638" type="curve" smooth="yes"/>
      <point x="300" y="640" type="line" smooth="yes"/>
      <point x="300" y="723"/>
      <point x="372" y="759"/>
      <point x="481" y="759" type="curve" smooth="yes"/>
      <point x="607" y="759"/>
      <point x="716" y="708"/>
      <point x="787" y="617" type="curve"/>
      <point x="787" y="590" type="line"/>
      <point x="828" y="550"/>
      <point x="867" y="486"/>
      <point x="867" y="402" type="curve" smooth="yes"/>
      <point x="867" y="397" type="line" smooth="yes"/>
      <point x="867" y="232"/>
      <point x="752" y="143"/>
      <point x="505" y="143" type="curve" smooth="yes"/>
      <point x="350" y="143"/>
      <point x="203" y="176"/>
      <point x="86" y="231" type="curve"/>
      <point x="99" y="55" type="line"/>
      <point x="208" y="9"/>
      <point x="355" y="-22"/>
    </contour>
    <contour>
      <point x="53" y="1073" type="line"/>
      <point x="1153" y="1073" type="line"/>
      <point x="1153" y="1218" type="line"/>
      <point x="53" y="1218" type="line"/>
    </contour>
    <component base="_cap.shiro_left"/>
    <component base="_cap.shiro_right" xOffset="915"/>
  </outline>
</glyph>
<glyph name="Ma.gm" format="2">
  <advance width="1204"/>
  <unicode hex="0A2E"/>
  <anchor x="1304" y="100" name="bottom"/>
  <anchor x="1220" y="100" name="bottom1"/>
  <anchor x="1150" y="1200" name="top"/>
  <outline>
    <contour>
      <point x="137" y="87" type="curve"/>
      <point x="334" y="87" type="line"/>
      <point x="356" y="235"/>
      <point x="369" y="403"/>
      <point x="369" y="571" type="curve" smooth="yes"/>
      <point x="369" y="773"/>
      <point x="356" y="999"/>
      <point x="328" y="1218" type="curve"/>
      <point x="34" y="1218" type="line"/>
      <point x="35" y="1072" type="line"/>
      <point x="151" y="1072" type="line"/>
      <point x="168" y="900"/>
      <point x="176" y="731"/>
      <point x="176" y="580" type="curve" smooth="yes"/>
      <point x="176" y="415"/>
      <point x="163" y="240"/>
    </contour>
    <contour>
      <point x="262" y="412" type="line"/>
      <point x="948" y="412" type="line"/>
      <point x="948" y="576" type="line"/>
      <point x="262" y="576" type="line"/>
    </contour>
    <component base="_danda" xOffset="677"/>
    <component base="_cap.shiro_left"/>
  </outline>
</glyph>
<glyph name="Ya.gm" format="2">
  <advance width="1545"/>
  <unicode hex="0A2F"/>
  <anchor x="1645" y="100" name="bottom"/>
  <anchor x="1379" y="100" name="bottom1"/>
  <anchor x="1491" y="1200" name="top"/>
  <outline>
    <contour>
      <point x="576" y="153" type="curve" smooth="yes"/>
      <point x="685" y="153"/>
      <point x="789" y="170"/>
      <point x="870" y="204" type="curve"/>
      <point x="870" y="620" type="line"/>
      <point x="1290" y="620" type="line"/>
      <point x="1290" y="779" type="line"/>
      <point x="683" y="779" type="line"/>
      <point x="683" y="285" type="line"/>
      <point x="739" y="343" type="line"/>
      <point x="691" y="324"/>
      <point x="630" y="312"/>
      <point x="568" y="312" type="curve" smooth="yes"/>
      <point x="455" y="312"/>
      <point x="367" y="346"/>
      <point x="310" y="409" type="curve"/>
      <point x="354" y="526"/>
      <point x="379" y="689"/>
      <point x="379" y="895" type="curve" smooth="yes"/>
      <point x="379" y="963"/>
      <point x="377" y="1041"/>
      <point x="370" y="1131" type="curve"/>
      <point x="175" y="1131" type="line"/>
      <point x="183" y="1041"/>
      <point x="186" y="963"/>
      <point x="186" y="895" type="curve" smooth="yes"/>
      <point x="186" y="671"/>
      <point x="157" y="491"/>
      <point x="104" y="361" type="curve"/>
      <point x="198" y="224"/>
      <point x="359" y="153"/>
    </contour>
    <contour>
      <point x="34" y="1073" type="line"/>
      <point x="1263" y="1073" type="line"/>
      <point x="1263" y="1218" type="line"/>
      <point x="34" y="1218" type="line"/>
    </contour>
    <component base="_danda" xOffset="1018"/>
    <component base="_cap.shiro_left"/>
  </outline>
</glyph>
<glyph name="Ra.gm" format="2">
  <advance width="1241"/>
  <unicode hex="0A30"/>
  <anchor x="1182" y="100" name="bottom"/>
  <anchor x="1248" y="100" name="bottom1"/>
  <anchor x="1194" y="1200" name="top"/>
  <outline>
    <contour>
      <point x="642" y="-25" type="curve" smooth="yes"/>
      <point x="937" y="-25"/>
      <point x="1090" y="113"/>
      <point x="1090" y="362" type="curve" smooth="yes"/>
      <point x="1090" y="1100" type="line"/>
      <point x="900" y="1100" type="line"/>
      <point x="900" y="729" type="line"/>
      <point x="902" y="710" type="line"/>
      <point x="902" y="366" type="line" smooth="yes"/>
      <point x="902" y="217"/>
      <point x="821" y="134"/>
      <point x="643" y="134" type="curve" smooth="yes"/>
      <point x="437" y="134"/>
      <point x="309" y="254"/>
      <point x="309" y="423" type="curve" smooth="yes"/>
      <point x="309" y="434" type="line" smooth="yes"/>
      <point x="309" y="568"/>
      <point x="383" y="643"/>
      <point x="539" y="643" type="curve" smooth="yes"/>
      <point x="991" y="643" type="line"/>
      <point x="991" y="801" type="line"/>
      <point x="516" y="801" type="line" smooth="yes"/>
      <point x="247" y="801"/>
      <point x="113" y="663"/>
      <point x="113" y="436" type="curve" smooth="yes"/>
      <point x="113" y="424" type="line" smooth="yes"/>
      <point x="113" y="175"/>
      <point x="301" y="-25"/>
    </contour>
    <contour>
      <point x="36" y="1073" type="line"/>
      <point x="1204" y="1073" type="line"/>
      <point x="1204" y="1218" type="line"/>
      <point x="36" y="1218" type="line"/>
    </contour>
    <component base="_cap.shiro_left"/>
    <component base="_cap.shiro_right" xOffset="985"/>
  </outline>
</glyph>
<glyph name="La.gm" format="2">
  <advance width="1408"/>
  <unicode hex="0A32"/>
  <anchor x="1457" y="100" name="bottom"/>
  <anchor x="1325" y="100" name="bottom1"/>
  <anchor x="1289" y="1200" name="top"/>
  <outline>
    <contour>
      <point x="708" y="387" type="curve"/>
      <point x="928" y="531"/>
      <point x="1131" y="797"/>
      <point x="1182" y="1125" type="curve"/>
      <point x="1186" y="1150" type="line"/>
      <point x="992" y="1150" type="line"/>
      <point x="984" y="1107" type="line"/>
      <point x="936" y="884"/>
      <point x="841" y="714"/>
      <point x="708" y="584" type="curve"/>
      <point x="564" y="711"/>
      <point x="470" y="886"/>
      <point x="427" y="1107" type="curve"/>
      <point x="420" y="1150" type="line"/>
      <point x="226" y="1150" type="line"/>
      <point x="230" y="1125" type="line"/>
      <point x="278" y="796"/>
      <point x="467" y="531"/>
    </contour>
    <contour>
      <point x="231" y="0" type="curve"/>
      <point x="423" y="0" type="line"/>
      <point x="432" y="6" type="line"/>
      <point x="349" y="108"/>
      <point x="307" y="215"/>
      <point x="307" y="353" type="curve" smooth="yes"/>
      <point x="307" y="361" type="line" smooth="yes"/>
      <point x="307" y="499"/>
      <point x="366" y="599"/>
      <point x="467" y="651" type="curve"/>
      <point x="405" y="809" type="line"/>
      <point x="214" y="743"/>
      <point x="113" y="589"/>
      <point x="113" y="371" type="curve" smooth="yes"/>
      <point x="113" y="363" type="line" smooth="yes"/>
      <point x="113" y="212"/>
      <point x="152" y="98"/>
    </contour>
    <contour>
      <point x="1176" y="0" type="line"/>
      <point x="1255" y="94"/>
      <point x="1294" y="210"/>
      <point x="1294" y="356" type="curve" smooth="yes"/>
      <point x="1294" y="368" type="line" smooth="yes"/>
      <point x="1294" y="589"/>
      <point x="1193" y="742"/>
      <point x="1000" y="809" type="curve"/>
      <point x="937" y="651" type="line"/>
      <point x="1042" y="599"/>
      <point x="1100" y="498"/>
      <point x="1100" y="362" type="curve" smooth="yes"/>
      <point x="1100" y="353" type="line" smooth="yes"/>
      <point x="1100" y="208"/>
      <point x="1058" y="105"/>
      <point x="975" y="6" type="curve"/>
      <point x="983" y="0" type="line"/>
    </contour>
    <contour>
      <point x="26" y="1073" type="line"/>
      <point x="1364" y="1073" type="line"/>
      <point x="1364" y="1218" type="line"/>
      <point x="26" y="1218" type="line"/>
    </contour>
    <component base="_cap.shiro_left"/>
    <component base="_cap.shiro_right" xOffset="1151"/>
  </outline>
</glyph>
<glyph name="Va.gm" format="2">
  <advance width="1223"/>
  <unicode hex="0A35"/>
  <anchor x="1190" y="94" name="bottom"/>
  <anchor x="1296" y="95" name="bottom1"/>
  <anchor x="1187" y="1200" name="top"/>
  <outline>
    <contour>
      <point x="407" y="354" type="curve"/>
      <point x="1047" y="354" type="line"/>
      <point x="1047" y="512" type="line"/>
      <point x="426" y="512" type="line" smooth="yes"/>
      <point x="331" y="513"/>
      <point x="282" y="544"/>
      <point x="282" y="612" type="curve" smooth="yes"/>
      <point x="282" y="682"/>
      <point x="332" y="712"/>
      <point x="428" y="712" type="curve" smooth="yes"/>
      <point x="1084" y="712" type="line"/>
      <point x="1084" y="1145" type="line"/>
      <point x="893" y="1145" type="line"/>
      <point x="893" y="866" type="line"/>
      <point x="407" y="866" type="line" smooth="yes"/>
      <point x="199" y="866"/>
      <point x="84" y="780"/>
      <point x="84" y="612" type="curve" smooth="yes"/>
      <point x="84" y="444"/>
      <point x="200" y="355"/>
    </contour>
    <contour>
      <point x="904" y="-29" type="curve" smooth="yes"/>
      <point x="974" y="-29"/>
      <point x="1035" y="-20"/>
      <point x="1094" y="-6" type="curve"/>
      <point x="1107" y="155" type="line"/>
      <point x="1048" y="141"/>
      <point x="986" y="133"/>
      <point x="928" y="133" type="curve" smooth="yes"/>
      <point x="742" y="133"/>
      <point x="607" y="198"/>
      <point x="578" y="406" type="curve"/>
      <point x="377" y="406" type="line"/>
      <point x="438" y="86"/>
      <point x="625" y="-29"/>
    </contour>
    <contour>
      <point x="52" y="1073" type="line"/>
      <point x="953" y="1077" type="line"/>
      <point x="967" y="1073" type="line"/>
      <point x="1200" y="1073" type="line"/>
      <point x="1200" y="1218" type="line"/>
      <point x="52" y="1218" type="line"/>
    </contour>
    <component base="_cap.shiro_left"/>
    <component base="_cap.shiro_right" xOffset="966"/>
  </outline>
</glyph>
<glyph name="Sha.gm" format="2">
  <advance width="1226"/>
  <unicode hex="0A36"/>
  <anchor x="1332" y="100" name="bottom"/>
  <anchor x="1233" y="100" name="bottom1"/>
  <anchor x="1178" y="1200" name="top"/>
  <outline>
    <contour>
      <point x="137" y="87" type="curve"/>
      <point x="334" y="87" type="line"/>
      <point x="356" y="235"/>
      <point x="369" y="403"/>
      <point x="369" y="571" type="curve" smooth="yes"/>
      <point x="369" y="774"/>
      <point x="355" y="1001"/>
      <point x="328" y="1218" type="curve"/>
      <point x="16" y="1218" type="line"/>
      <point x="17" y="1072" type="line"/>
      <point x="150" y="1072" type="line"/>
      <point x="168" y="895"/>
      <point x="176" y="731"/>
      <point x="176" y="580" type="curve" smooth="yes"/>
      <point x="176" y="415"/>
      <point x="163" y="240"/>
    </contour>
    <contour>
      <point x="289" y="409" type="line"/>
      <point x="990" y="409" type="line"/>
      <point x="990" y="573" type="line"/>
      <point x="289" y="573" type="line"/>
    </contour>
    <contour>
      <point x="888" y="0" type="line"/>
      <point x="1075" y="0" type="line"/>
      <point x="1075" y="1073" type="line"/>
      <point x="1179" y="1073" type="line"/>
      <point x="1179" y="1218" type="line"/>
      <point x="886" y="1218" type="line"/>
      <point x="886" y="504" type="line"/>
      <point x="888" y="485" type="line"/>
    </contour>
    <contour>
      <point x="231" y="1073" type="line"/>
      <point x="983" y="1073" type="line"/>
      <point x="978" y="1218" type="line"/>
      <point x="228" y="1218" type="line"/>
    </contour>
    <contour>
      <point x="625" y="37" type="curve" smooth="yes"/>
      <point x="699" y="37"/>
      <point x="737" y="80"/>
      <point x="737" y="153" type="curve" smooth="yes"/>
      <point x="737" y="165" type="line" smooth="yes"/>
      <point x="737" y="239"/>
      <point x="699" y="282"/>
      <point x="625" y="282" type="curve" smooth="yes"/>
      <point x="553" y="282"/>
      <point x="515" y="239"/>
      <point x="515" y="165" type="curve" smooth="yes"/>
      <point x="515" y="153" type="line" smooth="yes"/>
      <point x="515" y="80"/>
      <point x="553" y="37"/>
    </contour>
    <component base="_cap.shiro_right" xOffset="970"/>
    <component base="_cap.shiro_left"/>
  </outline>
</glyph>
<glyph name="Sa.gm" format="2">
  <advance width="1217"/>
  <unicode hex="0A38"/>
  <anchor x="1317" y="100" name="bottom"/>
  <anchor x="1231" y="100" name="bottom1"/>
  <anchor x="1163" y="1200" name="top"/>
  <outline>
    <contour>
      <point x="137" y="87" type="curve"/>
      <point x="334" y="87" type="line"/>
      <point x="356" y="236"/>
      <point x="369" y="403"/>
      <point x="369" y="571" type="curve" smooth="yes"/>
      <point x="369" y="774"/>
      <point x="355" y="999"/>
      <point x="326" y="1218" type="curve"/>
      <point x="34" y="1218" type="line"/>
      <point x="35" y="1072" type="line"/>
      <point x="148" y="1072" type="line"/>
      <point x="167" y="900"/>
      <point x="176" y="731"/>
      <point x="176" y="580" type="curve" smooth="yes"/>
      <point x="176" y="415"/>
      <point x="163" y="241"/>
    </contour>
    <contour>
      <point x="274" y="407" type="line"/>
      <point x="955" y="407" type="line"/>
      <point x="955" y="571" type="line"/>
      <point x="274" y="571" type="line"/>
    </contour>
    <contour>
      <point x="160" y="1073" type="line"/>
      <point x="1032" y="1073" type="line"/>
      <point x="1032" y="1218" type="line"/>
      <point x="160" y="1218" type="line"/>
    </contour>
    <component base="_cap.shiro_left"/>
    <component base="_danda" xOffset="690"/>
  </outline>
</glyph>
<glyph name="Ha.gm" format="2">
  <advance width="1230"/>
  <unicode hex="0A39"/>
  <anchor x="1170" y="100" name="bottom"/>
  <anchor x="1246" y="100" name="bottom1"/>
  <anchor x="1182" y="1200" name="top"/>
  <outline>
    <contour>
      <point x="635" y="-25" type="curve" smooth="yes"/>
      <point x="928" y="-25"/>
      <point x="1078" y="121"/>
      <point x="1078" y="376" type="curve" smooth="yes"/>
      <point x="1078" y="1150" type="line"/>
      <point x="889" y="1150" type="line"/>
      <point x="889" y="380" type="line" smooth="yes"/>
      <point x="889" y="228"/>
      <point x="812" y="140"/>
      <point x="635" y="140" type="curve" smooth="yes"/>
      <point x="437" y="140"/>
      <point x="303" y="260"/>
      <point x="303" y="423" type="curve" smooth="yes"/>
      <point x="303" y="435" type="line" smooth="yes"/>
      <point x="303" y="567"/>
      <point x="377" y="639"/>
      <point x="522" y="639" type="curve" smooth="yes"/>
      <point x="655" y="639" type="line"/>
      <point x="682" y="798" type="line"/>
      <point x="499" y="798" type="line" smooth="yes"/>
      <point x="243" y="798"/>
      <point x="108" y="674"/>
      <point x="108" y="443" type="curve" smooth="yes"/>
      <point x="108" y="428" type="line" smooth="yes"/>
      <point x="108" y="178"/>
      <point x="289" y="-25"/>
    </contour>
    <contour>
      <point x="30" y="1073" type="line"/>
      <point x="1191" y="1073" type="line"/>
      <point x="1191" y="1218" type="line"/>
      <point x="30" y="1218" type="line"/>
    </contour>
    <component base="_cap.shiro_left"/>
    <component base="_cap.shiro_right" xOffset="973"/>
  </outline>
</glyph>
<glyph name="Nukta.gm" format="2">
  <unicode hex="0A3C"/>
  <outline>
    <contour>
      <point x="-325" y="-281" type="curve" smooth="yes"/>
      <point x="-253" y="-281"/>
      <point x="-217" y="-240"/>
      <point x="-217" y="-170" type="curve" smooth="yes"/>
      <point x="-217" y="-159" type="line" smooth="yes"/>
      <point x="-217" y="-89"/>
      <point x="-253" y="-49"/>
      <point x="-325" y="-49" type="curve" smooth="yes"/>
      <point x="-394" y="-49"/>
      <point x="-431" y="-89"/>
      <point x="-431" y="-159" type="curve" smooth="yes"/>
      <point x="-431" y="-170" type="line" smooth="yes"/>
      <point x="-431" y="-240"/>
      <point x="-394" y="-281"/>
    </contour>
  </outline>
</glyph>
<glyph name="MatraU.gm" format="2">
  <unicode hex="0A41"/>
  <anchor x="700" y="100" name="_bottom1"/>
  <outline>
    <contour>
      <point x="82" y="-355" type="curve" smooth="yes"/>
      <point x="224" y="-355"/>
      <point x="368" y="-327"/>
      <point x="469" y="-280" type="curve"/>
      <point x="480" y="-125" type="line"/>
      <point x="376" y="-172"/>
      <point x="234" y="-200"/>
      <point x="90" y="-200" type="curve" smooth="yes"/>
      <point x="-54" y="-200"/>
      <point x="-201" y="-172"/>
      <point x="-309" y="-124" type="curve"/>
      <point x="-298" y="-280" type="line"/>
      <point x="-199" y="-328"/>
      <point x="-60" y="-355"/>
    </contour>
  </outline>
</glyph>
<glyph name="MatraUu.gm" format="2">
  <unicode hex="0A42"/>
  <anchor x="700" y="100" name="_bottom1"/>
  <outline>
    <contour>
      <point x="82" y="-292" type="curve" smooth="yes"/>
      <point x="228" y="-291"/>
      <point x="373" y="-264"/>
      <point x="469" y="-220" type="curve"/>
      <point x="479" y="-80" type="line"/>
      <point x="380" y="-123"/>
      <point x="238" y="-153"/>
      <point x="89" y="-153" type="curve" smooth="yes"/>
      <point x="-60" y="-153"/>
      <point x="-208" y="-126"/>
      <point x="-311" y="-80" type="curve"/>
      <point x="-301" y="-220" type="line"/>
      <point x="-204" y="-265"/>
      <point x="-63" y="-291"/>
    </contour>
    <contour>
      <point x="81" y="-541" type="curve" smooth="yes"/>
      <point x="227" y="-541"/>
      <point x="372" y="-515"/>
      <point x="468" y="-469" type="curve"/>
      <point x="478" y="-329" type="line"/>
      <point x="379" y="-374"/>
      <point x="237" y="-402"/>
      <point x="88" y="-402" type="curve" smooth="yes"/>
      <point x="-61" y="-402"/>
      <point x="-209" y="-374"/>
      <point x="-312" y="-329" type="curve"/>
      <point x="-302" y="-469" type="line"/>
      <point x="-205" y="-515"/>
      <point x="-64" y="-541"/>
    </contour>
  </outline>
</glyph>
<glyph name="MatraEe.gm" format="2">
  <unicode hex="0A47"/>
  <anchor x="500" y="1200" name="_top"/>
  <anchor x="758" y="1369" name="top1"/>
  <outline>
    <contour>
      <point x="288" y="1195" type="line"/>
      <point x="388" y="1195" type="line"/>
      <point x="349" y="1587"/>
      <point x="174" y="1718"/>
      <point x="-189" y="1718" type="curve" smooth="yes"/>
      <point x="-252" y="1718"/>
      <point x="-307" y="1713"/>
      <point x="-368" y="1706" type="curve"/>
      <point x="-383" y="1532" type="line"/>
      <point x="-316" y="1540"/>
      <point x="-243" y="1544"/>
      <point x="-194" y="1544" type="curve" smooth="yes"/>
      <point x="124" y="1544"/>
      <point x="239" y="1440"/>
      <point x="286" y="1205" type="curve" smooth="yes"/>
    </contour>
  </outline>
</glyph>
<glyph name="MatraAi.gm" format="2">
  <unicode hex="0A48"/>
  <anchor x="497" y="1200" name="_top"/>
  <anchor x="830" y="1390" name="top1"/>
  <outline>
    <contour>
      <point x="308" y="1197" type="line"/>
      <point x="388" y="1197" type="line"/>
      <point x="384" y="1326" type="line" smooth="yes"/>
      <point x="373" y="1681"/>
      <point x="209" y="1846"/>
      <point x="-181" y="1846" type="curve" smooth="yes"/>
      <point x="-246" y="1846"/>
      <point x="-320" y="1841"/>
      <point x="-420" y="1826" type="curve"/>
      <point x="-433" y="1660" type="line"/>
      <point x="-342" y="1674"/>
      <point x="-246" y="1682"/>
      <point x="-176" y="1682" type="curve" smooth="yes"/>
      <point x="146" y="1682"/>
      <point x="256" y="1571"/>
      <point x="300" y="1361" type="curve"/>
      <point x="288" y="1358" type="line"/>
    </contour>
    <contour>
      <point x="277" y="1197" type="line"/>
      <point x="333" y="1197" type="line"/>
      <point x="330" y="1228" type="line" smooth="yes"/>
      <point x="310" y="1426"/>
      <point x="167" y="1564"/>
      <point x="-131" y="1564" type="curve" smooth="yes"/>
      <point x="-187" y="1564"/>
      <point x="-261" y="1558"/>
      <point x="-337" y="1548" type="curve"/>
      <point x="-350" y="1382" type="line"/>
      <point x="-252" y="1394"/>
      <point x="-183" y="1400"/>
      <point x="-111" y="1400" type="curve" smooth="yes"/>
      <point x="151" y="1400"/>
      <point x="263" y="1332"/>
      <point x="275" y="1216" type="curve" smooth="yes"/>
    </contour>
  </outline>
</glyph>
<glyph name="MatraOo.gm" format="2">
  <unicode hex="0A4B"/>
  <anchor x="500" y="1200" name="_top"/>
  <anchor x="792" y="1373" name="top1"/>
  <outline>
    <contour>
      <point x="283" y="1206" type="curve"/>
      <point x="384" y="1206" type="line"/>
      <point x="387" y="1242"/>
      <point x="390" y="1275"/>
      <point x="390" y="1305" type="curve" smooth="yes"/>
      <point x="390" y="1507"/>
      <point x="290" y="1575"/>
      <point x="72" y="1592" type="curve" smooth="yes"/>
      <point x="-68" y="1603" type="line" smooth="yes"/>
      <point x="-196" y="1613"/>
      <point x="-267" y="1657"/>
      <point x="-272" y="1796" type="curve"/>
      <point x="-372" y="1796" type="line"/>
      <point x="-372" y="1706" type="line" smooth="yes"/>
      <point x="-372" y="1529"/>
      <point x="-282" y="1448"/>
      <point x="-86" y="1434" type="curve" smooth="yes"/>
      <point x="57" y="1422" type="line" smooth="yes"/>
      <point x="214" y="1410"/>
      <point x="277" y="1363"/>
    </contour>
  </outline>
</glyph>
<glyph name="MatraAu.gm" format="2">
  <unicode hex="0A4C"/>
  <anchor x="500" y="1200" name="_top"/>
  <anchor x="999" y="1454" name="top1"/>
  <outline>
    <contour>
      <point x="88" y="1313" type="curve"/>
      <point x="210" y="1313" type="line"/>
      <point x="196" y="1341"/>
      <point x="186" y="1373"/>
      <point x="186" y="1407" type="curve"/>
      <point x="186" y="1478"/>
      <point x="235" y="1521"/>
      <point x="308" y="1521" type="curve" smooth="yes"/>
      <point x="383" y="1521"/>
      <point x="429" y="1479"/>
      <point x="429" y="1407" type="curve" smooth="yes"/>
      <point x="429" y="1373"/>
      <point x="419" y="1341"/>
      <point x="404" y="1313" type="curve"/>
      <point x="527" y="1313" type="line"/>
      <point x="561" y="1353"/>
      <point x="580" y="1402"/>
      <point x="580" y="1461" type="curve" smooth="yes"/>
      <point x="580" y="1591"/>
      <point x="480" y="1679"/>
      <point x="307" y="1679" type="curve" smooth="yes"/>
      <point x="240" y="1679"/>
      <point x="182" y="1660"/>
      <point x="142" y="1626" type="curve"/>
      <point x="148" y="1603" type="line"/>
      <point x="76" y="1574"/>
      <point x="37" y="1515"/>
      <point x="37" y="1446" type="curve"/>
      <point x="37" y="1395"/>
      <point x="56" y="1352"/>
    </contour>
    <contour>
      <point x="-60" y="1522" type="curve" smooth="yes"/>
      <point x="11" y="1522"/>
      <point x="57" y="1541"/>
      <point x="94" y="1566" type="curve"/>
      <point x="100" y="1560" type="line"/>
      <point x="284" y="1564" type="line"/>
      <point x="307" y="1679" type="line"/>
      <point x="35" y="1678" type="line" smooth="yes"/>
      <point x="-79" y="1678"/>
      <point x="-145" y="1708"/>
      <point x="-153" y="1835" type="curve"/>
      <point x="-266" y="1835" type="line"/>
      <point x="-263" y="1748" type="line" smooth="yes"/>
      <point x="-260" y="1587"/>
      <point x="-180" y="1522"/>
    </contour>
  </outline>
</glyph>
<glyph name="Virama.gm" format="2">
  <unicode hex="0A4D"/>
  <anchor x="700" y="100" name="_bottom"/>
  <outline>
    <contour>
      <point x="528" y="-490" type="line"/>
      <point x="712" y="-491" type="line"/>
      <point x="462" y="-134" type="line"/>
      <point x="257" y="-134" type="line"/>
    </contour>
  </outline>
</glyph>
<glyph name="Udaat.gm" format="2">
  <unicode hex="0A51"/>
  <anchor x="700" y="100" name="_bottom"/>
  <anchor x="600" y="320" name="bottom1"/>
  <outline>
    <contour>
      <point x="693" y="-499" type="curve"/>
      <point x="693" y="-342" type="line"/>
      <point x="533" y="-342"/>
      <point x="442" y="-272"/>
      <point x="442" y="-134" type="curve"/>
      <point x="253" y="-134" type="line"/>
      <point x="253" y="-373"/>
      <point x="406" y="-499"/>
    </contour>
  </outline>
</glyph>
<glyph name="Za.gm" format="2">
  <advance width="1273"/>
  <unicode hex="0A5B"/>
  <anchor x="1373" y="100" name="bottom"/>
  <anchor x="1254" y="100" name="bottom1"/>
  <anchor x="1219" y="1200" name="top"/>
  <outline>
    <contour>
      <point x="135" y="0" type="curve"/>
      <point x="328" y="0" type="line"/>
      <point x="349" y="161"/>
      <point x="361" y="356"/>
      <point x="361" y="536" type="curve" smooth="yes"/>
      <point x="361" y="671"/>
      <point x="353" y="808"/>
      <point x="339" y="919" type="curve"/>
      <point x="148" y="888" type="line"/>
      <point x="160" y="787"/>
      <point x="168" y="666"/>
      <point x="168" y="543" type="curve" smooth="yes"/>
      <point x="168" y="362"/>
      <point x="156" y="166"/>
    </contour>
    <contour>
      <point x="260" y="533" type="line"/>
      <point x="1018" y="533" type="line"/>
      <point x="1018" y="695" type="line"/>
      <point x="260" y="695" type="line"/>
    </contour>
    <contour>
      <point x="26" y="1073" type="line"/>
      <point x="1062" y="1073" type="line"/>
      <point x="1062" y="1218" type="line"/>
      <point x="26" y="1218" type="line"/>
    </contour>
    <contour>
      <point x="650" y="66" type="curve" smooth="yes"/>
      <point x="724" y="66"/>
      <point x="762" y="109"/>
      <point x="762" y="182" type="curve" smooth="yes"/>
      <point x="762" y="194" type="line" smooth="yes"/>
      <point x="762" y="268"/>
      <point x="724" y="311"/>
      <point x="650" y="311" type="curve" smooth="yes"/>
      <point x="578" y="311"/>
      <point x="540" y="268"/>
      <point x="540" y="194" type="curve" smooth="yes"/>
      <point x="540" y="182" type="line" smooth="yes"/>
      <point x="540" y="109"/>
      <point x="578" y="66"/>
    </contour>
    <component base="_danda" xOffset="746"/>
    <component base="_cap.shiro_left"/>
  </outline>
</glyph>
<glyph name="Rra.gm" format="2">
  <advance width="1081"/>
  <unicode hex="0A5C"/>
  <anchor x="990" y="10" name="bottom"/>
  <anchor x="1181" y="-15" name="bottom1"/>
  <anchor x="1054" y="1200" name="top"/>
  <outline>
    <contour>
      <point x="487" y="38" type="curve" smooth="yes"/>
      <point x="821" y="38"/>
      <point x="969" y="165"/>
      <point x="969" y="368" type="curve" smooth="yes"/>
      <point x="969" y="394" type="line" smooth="yes"/>
      <point x="969" y="564"/>
      <point x="865" y="678"/>
      <point x="640" y="680" type="curve"/>
      <point x="686" y="630" type="line"/>
      <point x="686" y="681" type="line"/>
      <point x="855" y="683"/>
      <point x="951" y="812"/>
      <point x="951" y="992" type="curve" smooth="yes"/>
      <point x="951" y="1148" type="line"/>
      <point x="754" y="1148" type="line"/>
      <point x="754" y="1002" type="line" smooth="yes"/>
      <point x="754" y="860"/>
      <point x="693" y="754"/>
      <point x="537" y="754" type="curve" smooth="yes"/>
      <point x="145" y="754" type="line"/>
      <point x="145" y="592" type="line"/>
      <point x="545" y="592" type="line" smooth="yes"/>
      <point x="708" y="592"/>
      <point x="775" y="513"/>
      <point x="775" y="402" type="curve" smooth="yes"/>
      <point x="775" y="391" type="line" smooth="yes"/>
      <point x="775" y="264"/>
      <point x="682" y="194"/>
      <point x="461" y="194" type="curve" smooth="yes"/>
      <point x="321" y="194"/>
      <point x="174" y="229"/>
      <point x="73" y="279" type="curve"/>
      <point x="86" y="125" type="line"/>
      <point x="182" y="79"/>
      <point x="322" y="38"/>
    </contour>
    <contour>
      <point x="295" y="-187" type="line"/>
      <point x="503" y="-187" type="line"/>
      <point x="267" y="131" type="line"/>
      <point x="86" y="125" type="line"/>
    </contour>
    <contour>
      <point x="857" y="-187" type="line"/>
      <point x="1065" y="-187" type="line"/>
      <point x="810" y="142" type="line"/>
      <point x="625" y="116" type="line"/>
    </contour>
    <contour>
      <point x="28" y="1073" type="line"/>
      <point x="1054" y="1073" type="line"/>
      <point x="1051" y="1218" type="line"/>
      <point x="28" y="1218" type="line"/>
    </contour>
    <component base="_cap.shiro_left"/>
    <component base="_cap.shiro_right" xOffset="827"/>
  </outline>
</glyph>
<glyph name="zero.gm" format="2">
  <advance width="1058"/>
  <unicode hex="0A66"/>
  <outline>
    <contour>
      <point x="532" y="138" type="curve" smooth="yes"/>
      <point x="811" y="138"/>
      <point x="973" y="303"/>
      <point x="973" y="558" type="curve" smooth="yes"/>
      <point x="973" y="666" type="line" smooth="yes"/>
      <point x="973" y="927"/>
      <point x="810" y="1086"/>
      <point x="531" y="1086" type="curve" smooth="yes"/>
      <point x="254" y="1086"/>
      <point x="90" y="927"/>
      <point x="90" y="666" type="curve" smooth="yes"/>
      <point x="90" y="558" type="line" smooth="yes"/>
      <point x="90" y="303"/>
      <point x="255" y="138"/>
    </contour>
    <contour>
      <point x="531" y="301" type="curve" smooth="yes"/>
      <point x="377" y="301"/>
      <point x="286" y="395"/>
      <point x="286" y="563" type="curve" smooth="yes"/>
      <point x="286" y="664" type="line" smooth="yes"/>
      <point x="286" y="831"/>
      <point x="377" y="923"/>
      <point x="532" y="923" type="curve" smooth="yes"/>
      <point x="686" y="923"/>
      <point x="776" y="831"/>
      <point x="776" y="663" type="curve" smooth="yes"/>
      <point x="776" y="562" type="line" smooth="yes"/>
      <point x="776" y="395"/>
      <point x="685" y="301"/>
    </contour>
  </outline>
</glyph>
<glyph name="one.gm" format="2">
  <advance width="1080"/>
  <unicode hex="0A67"/>
  <outline>
    <contour>
      <point x="770" y="0" type="line"/>
      <point x="961" y="0" type="line"/>
      <point x="961" y="839" type="line" smooth="yes"/>
      <point x="961" y="1092"/>
      <point x="802" y="1240"/>
      <point x="526" y="1240" type="curve" smooth="yes"/>
      <point x="248" y="1240"/>
      <point x="93" y="1094"/>
      <point x="93" y="835" type="curve" smooth="yes"/>
      <point x="93" y="833" type="line" smooth="yes"/>
      <point x="93" y="581"/>
      <point x="238" y="457"/>
      <point x="487" y="457" type="curve" smooth="yes"/>
      <point x="571" y="457"/>
      <point x="651" y="470"/>
      <point x="720" y="497" type="curve"/>
      <point x="766" y="652" type="line"/>
      <point x="782" y="652" type="line"/>
      <point x="772" y="693" type="line"/>
      <point x="735" y="660"/>
      <point x="652" y="618"/>
      <point x="528" y="618" type="curve" smooth="yes"/>
      <point x="372" y="618"/>
      <point x="288" y="695"/>
      <point x="288" y="837" type="curve" smooth="yes"/>
      <point x="288" y="843" type="line" smooth="yes"/>
      <point x="288" y="998"/>
      <point x="369" y="1079"/>
      <point x="526" y="1079" type="curve" smooth="yes"/>
      <point x="683" y="1079"/>
      <point x="770" y="994"/>
      <point x="770" y="849" type="curve" smooth="yes"/>
    </contour>
  </outline>
</glyph>
<glyph name="two.gm" format="2">
  <advance width="1024"/>
  <unicode hex="0A68"/>
  <outline>
    <contour>
      <point x="439" y="358" type="curve" smooth="yes"/>
      <point x="776" y="358"/>
      <point x="932" y="507"/>
      <point x="932" y="777" type="curve" smooth="yes"/>
      <point x="932" y="798" type="line" smooth="yes"/>
      <point x="932" y="1089"/>
      <point x="768" y="1240"/>
      <point x="472" y="1240" type="curve" smooth="yes"/>
      <point x="353" y="1240"/>
      <point x="204" y="1210"/>
      <point x="104" y="1151" type="curve"/>
      <point x="104" y="982" type="line"/>
      <point x="206" y="1039"/>
      <point x="335" y="1078"/>
      <point x="455" y="1078" type="curve" smooth="yes"/>
      <point x="633" y="1078"/>
      <point x="735" y="983"/>
      <point x="735" y="805" type="curve" smooth="yes"/>
      <point x="735" y="785" type="line" smooth="yes"/>
      <point x="735" y="615"/>
      <point x="635" y="523"/>
      <point x="408" y="523" type="curve" smooth="yes"/>
      <point x="296" y="523"/>
      <point x="194" y="546"/>
      <point x="88" y="587" type="curve"/>
      <point x="102" y="415" type="line"/>
      <point x="207" y="383"/>
      <point x="319" y="358"/>
    </contour>
    <contour>
      <point x="591" y="-22" type="line"/>
      <point x="852" y="-22" type="line"/>
      <point x="708" y="122"/>
      <point x="577" y="238"/>
      <point x="414" y="356" type="curve"/>
      <point x="431" y="448" type="line"/>
      <point x="178" y="407" type="line"/>
    </contour>
  </outline>
</glyph>
<glyph name="three.gm" format="2">
  <advance width="1046"/>
  <unicode hex="0A69"/>
  <outline>
    <contour>
      <point x="499" y="61" type="curve" smooth="yes"/>
      <point x="807" y="61"/>
      <point x="953" y="180"/>
      <point x="953" y="379" type="curve" smooth="yes"/>
      <point x="953" y="383" type="line" smooth="yes"/>
      <point x="953" y="544"/>
      <point x="850" y="658"/>
      <point x="620" y="659" type="curve"/>
      <point x="695" y="605" type="line"/>
      <point x="695" y="657" type="line"/>
      <point x="851" y="663"/>
      <point x="935" y="762"/>
      <point x="935" y="914" type="curve" smooth="yes"/>
      <point x="935" y="918" type="line" smooth="yes"/>
      <point x="935" y="1117"/>
      <point x="777" y="1240"/>
      <point x="477" y="1240" type="curve" smooth="yes"/>
      <point x="349" y="1240"/>
      <point x="202" y="1207"/>
      <point x="96" y="1151" type="curve"/>
      <point x="96" y="982" type="line"/>
      <point x="215" y="1039"/>
      <point x="346" y="1072"/>
      <point x="466" y="1072" type="curve" smooth="yes"/>
      <point x="641" y="1072"/>
      <point x="738" y="1017"/>
      <point x="738" y="898" type="curve" smooth="yes"/>
      <point x="738" y="896" type="line" smooth="yes"/>
      <point x="738" y="800"/>
      <point x="683" y="732"/>
      <point x="536" y="732" type="curve" smooth="yes"/>
      <point x="182" y="732" type="line"/>
      <point x="182" y="569" type="line"/>
      <point x="537" y="569" type="line" smooth="yes"/>
      <point x="689" y="569"/>
      <point x="756" y="506"/>
      <point x="756" y="403" type="curve" smooth="yes"/>
      <point x="756" y="399" type="line" smooth="yes"/>
      <point x="756" y="287"/>
      <point x="664" y="228"/>
      <point x="485" y="228" type="curve" smooth="yes"/>
      <point x="340" y="228"/>
      <point x="195" y="270"/>
      <point x="80" y="325" type="curve"/>
      <point x="93" y="141" type="line"/>
      <point x="214" y="92"/>
      <point x="368" y="61"/>
    </contour>
    <contour>
      <point x="474" y="-177" type="line"/>
      <point x="742" y="-177" type="line"/>
      <point x="628" y="-75"/>
      <point x="537" y="-5"/>
      <point x="438" y="59" type="curve"/>
      <point x="437" y="157" type="line"/>
      <point x="173" y="144" type="line"/>
    </contour>
  </outline>
</glyph>
<glyph name="four.gm" format="2">
  <advance width="1142"/>
  <unicode hex="0A6A"/>
  <outline>
    <contour>
      <point x="572" y="-20" type="curve" smooth="yes"/>
      <point x="861" y="-20"/>
      <point x="1031" y="100"/>
      <point x="1031" y="329" type="curve" smooth="yes"/>
      <point x="1031" y="339" type="line" smooth="yes"/>
      <point x="1031" y="513"/>
      <point x="934" y="620"/>
      <point x="764" y="645" type="curve"/>
      <point x="764" y="649" type="line"/>
      <point x="952" y="677"/>
      <point x="1044" y="783"/>
      <point x="1044" y="946" type="curve" smooth="yes"/>
      <point x="1044" y="1043"/>
      <point x="1032" y="1134"/>
      <point x="1011" y="1218" type="curve"/>
      <point x="815" y="1218" type="line"/>
      <point x="836" y="1131"/>
      <point x="847" y="1041"/>
      <point x="847" y="947" type="curve" smooth="yes"/>
      <point x="847" y="814"/>
      <point x="763" y="737"/>
      <point x="572" y="737" type="curve" smooth="yes"/>
      <point x="382" y="737"/>
      <point x="296" y="814"/>
      <point x="296" y="947" type="curve" smooth="yes"/>
      <point x="296" y="1041"/>
      <point x="307" y="1131"/>
      <point x="328" y="1218" type="curve"/>
      <point x="132" y="1218" type="line"/>
      <point x="110" y="1134"/>
      <point x="99" y="1040"/>
      <point x="99" y="946" type="curve" smooth="yes"/>
      <point x="99" y="782"/>
      <point x="192" y="676"/>
      <point x="372" y="648" type="curve"/>
      <point x="372" y="644" type="line"/>
      <point x="204" y="619"/>
      <point x="111" y="516"/>
      <point x="111" y="338" type="curve" smooth="yes"/>
      <point x="111" y="329" type="line" smooth="yes"/>
      <point x="111" y="100"/>
      <point x="286" y="-20"/>
    </contour>
    <contour>
      <point x="572" y="145" type="curve" smooth="yes"/>
      <point x="405" y="145"/>
      <point x="307" y="216"/>
      <point x="307" y="353" type="curve" smooth="yes"/>
      <point x="307" y="360" type="line" smooth="yes"/>
      <point x="307" y="484"/>
      <point x="379" y="572"/>
      <point x="570" y="572" type="curve" smooth="yes"/>
      <point x="761" y="572"/>
      <point x="833" y="484"/>
      <point x="833" y="359" type="curve" smooth="yes"/>
      <point x="833" y="353" type="line" smooth="yes"/>
      <point x="833" y="216"/>
      <point x="742" y="145"/>
    </contour>
  </outline>
</glyph>
<glyph name="five.gm" format="2">
  <advance width="1173"/>
  <unicode hex="0A6B"/>
  <outline>
    <contour>
      <point x="549" y="190" type="curve" smooth="yes"/>
      <point x="642" y="190"/>
      <point x="740" y="206"/>
      <point x="813" y="233" type="curve"/>
      <point x="860" y="373" type="line"/>
      <point x="875" y="373" type="line"/>
      <point x="869" y="430" type="line"/>
      <point x="803" y="384"/>
      <point x="701" y="355"/>
      <point x="592" y="355" type="curve" smooth="yes"/>
      <point x="465" y="355"/>
      <point x="358" y="397"/>
      <point x="294" y="460" type="curve"/>
      <point x="336" y="609"/>
      <point x="358" y="799"/>
      <point x="358" y="988" type="curve" smooth="yes"/>
      <point x="358" y="1067"/>
      <point x="355" y="1144"/>
      <point x="348" y="1218" type="curve"/>
      <point x="152" y="1218" type="line"/>
      <point x="159" y="1144"/>
      <point x="162" y="1068"/>
      <point x="162" y="990" type="curve" smooth="yes"/>
      <point x="162" y="760"/>
      <point x="139" y="581"/>
      <point x="81" y="403" type="curve"/>
      <point x="179" y="262"/>
      <point x="348" y="190"/>
    </contour>
    <contour>
      <point x="864" y="0" type="line"/>
      <point x="1054" y="0" type="line"/>
      <point x="1054" y="1218" type="line"/>
      <point x="864" y="1218" type="line"/>
    </contour>
  </outline>
</glyph>
<glyph name="six.gm" format="2">
  <advance width="1045"/>
  <unicode hex="0A6C"/>
  <outline>
    <contour>
      <point x="577" y="-20" type="curve" smooth="yes"/>
      <point x="715" y="-20"/>
      <point x="847" y="11"/>
      <point x="949" y="61" type="curve"/>
      <point x="961" y="246" type="line"/>
      <point x="851" y="189"/>
      <point x="732" y="152"/>
      <point x="599" y="152" type="curve" smooth="yes"/>
      <point x="384" y="152"/>
      <point x="290" y="218"/>
      <point x="290" y="338" type="curve" smooth="yes"/>
      <point x="290" y="340" type="line" smooth="yes"/>
      <point x="290" y="452"/>
      <point x="363" y="523"/>
      <point x="521" y="523" type="curve" smooth="yes"/>
      <point x="870" y="523" type="line"/>
      <point x="870" y="686" type="line"/>
      <point x="521" y="686" type="line" smooth="yes"/>
      <point x="366" y="686"/>
      <point x="306" y="756"/>
      <point x="306" y="862" type="curve" smooth="yes"/>
      <point x="306" y="864" type="line" smooth="yes"/>
      <point x="306" y="982"/>
      <point x="401" y="1041"/>
      <point x="573" y="1041" type="curve" smooth="yes"/>
      <point x="694" y="1041"/>
      <point x="838" y="1003"/>
      <point x="929" y="956" type="curve"/>
      <point x="927" y="1126" type="line"/>
      <point x="825" y="1175"/>
      <point x="704" y="1206"/>
      <point x="559" y="1206" type="curve" smooth="yes"/>
      <point x="260" y="1206"/>
      <point x="109" y="1083"/>
      <point x="109" y="877" type="curve" smooth="yes"/>
      <point x="109" y="874" type="line" smooth="yes"/>
      <point x="109" y="719"/>
      <point x="205" y="618"/>
      <point x="362" y="608" type="curve"/>
      <point x="362" y="569" type="line"/>
      <point x="428" y="608" type="line"/>
      <point x="205" y="604"/>
      <point x="94" y="495"/>
      <point x="94" y="325" type="curve" smooth="yes"/>
      <point x="94" y="321" type="line" smooth="yes"/>
      <point x="94" y="103"/>
      <point x="254" y="-20"/>
    </contour>
    <contour>
      <point x="954" y="1394" type="curve"/>
      <point x="941" y="1550" type="line"/>
      <point x="900" y="1558"/>
      <point x="856" y="1562"/>
      <point x="812" y="1562" type="curve" smooth="yes"/>
      <point x="626" y="1562"/>
      <point x="532" y="1492"/>
      <point x="532" y="1370" type="curve" smooth="yes"/>
      <point x="532" y="1282"/>
      <point x="584" y="1236"/>
      <point x="645" y="1208" type="curve"/>
      <point x="645" y="1122" type="line"/>
      <point x="843" y="1160" type="line"/>
      <point x="771" y="1193"/>
      <point x="708" y="1244"/>
      <point x="708" y="1307" type="curve" smooth="yes"/>
      <point x="708" y="1367"/>
      <point x="755" y="1406"/>
      <point x="846" y="1406" type="curve" smooth="yes"/>
      <point x="881" y="1406"/>
      <point x="919" y="1402"/>
    </contour>
  </outline>
</glyph>
<glyph name="seven.gm" format="2">
  <advance width="1128"/>
  <unicode hex="0A6D"/>
  <outline>
    <contour>
      <point x="127" y="0" type="line"/>
      <point x="272" y="0" type="line" smooth="yes"/>
      <point x="758" y="0"/>
      <point x="1029" y="213"/>
      <point x="1029" y="641" type="curve" smooth="yes"/>
      <point x="1029" y="766" type="line" smooth="yes"/>
      <point x="1029" y="1059"/>
      <point x="863" y="1239"/>
      <point x="563" y="1239" type="curve" smooth="yes"/>
      <point x="271" y="1239"/>
      <point x="100" y="1069"/>
      <point x="100" y="766" type="curve" smooth="yes"/>
      <point x="100" y="637" type="line"/>
      <point x="294" y="637" type="line"/>
      <point x="294" y="772" type="line" smooth="yes"/>
      <point x="294" y="965"/>
      <point x="394" y="1074"/>
      <point x="563" y="1074" type="curve" smooth="yes"/>
      <point x="749" y="1074"/>
      <point x="835" y="960"/>
      <point x="835" y="770" type="curve" smooth="yes"/>
      <point x="835" y="641" type="line" smooth="yes"/>
      <point x="835" y="324"/>
      <point x="638" y="180"/>
      <point x="262" y="180" type="curve" smooth="yes"/>
      <point x="113" y="180" type="line"/>
    </contour>
  </outline>
</glyph>
<glyph name="eight.gm" format="2">
  <advance width="1087"/>
  <unicode hex="0A6E"/>
  <outline>
    <contour>
      <point x="668" y="-23" type="curve" smooth="yes"/>
      <point x="804" y="-23"/>
      <point x="933" y="11"/>
      <point x="1008" y="54" type="curve"/>
      <point x="1022" y="242" type="line"/>
      <point x="934" y="187"/>
      <point x="816" y="149"/>
      <point x="697" y="149" type="curve" smooth="yes"/>
      <point x="447" y="149"/>
      <point x="311" y="272"/>
      <point x="311" y="512" type="curve" smooth="yes"/>
      <point x="311" y="1225" type="line"/>
      <point x="119" y="1192" type="line"/>
      <point x="119" y="514" type="line" smooth="yes"/>
      <point x="119" y="162"/>
      <point x="312" y="-23"/>
    </contour>
    <contour>
      <point x="218" y="823" type="line"/>
      <point x="997" y="823" type="line"/>
      <point x="997" y="979" type="line"/>
      <point x="218" y="979" type="line"/>
    </contour>
  </outline>
</glyph>
<glyph name="nine.gm" format="2">
  <advance width="1087"/>
  <unicode hex="0A6F"/>
  <outline>
    <contour>
      <point x="668" y="-23" type="curve" smooth="yes"/>
      <point x="804" y="-23"/>
      <point x="933" y="11"/>
      <point x="1008" y="54" type="curve"/>
      <point x="1022" y="242" type="line"/>
      <point x="934" y="187"/>
      <point x="816" y="149"/>
      <point x="697" y="149" type="curve" smooth="yes"/>
      <point x="447" y="149"/>
      <point x="311" y="272"/>
      <point x="311" y="512" type="curve" smooth="yes"/>
      <point x="311" y="1225" type="line"/>
      <point x="119" y="1192" type="line"/>
      <point x="119" y="514" type="line" smooth="yes"/>
      <point x="119" y="162"/>
      <point x="312" y="-23"/>
    </contour>
    <contour>
      <point x="218" y="823" type="line"/>
      <point x="997" y="823" type="line"/>
      <point x="997" y="979" type="line"/>
      <point x="218" y="979" type="line"/>
    </contour>
    <contour>
      <point x="775" y="900" type="line"/>
      <point x="952" y="978" type="line"/>
      <point x="869" y="1003"/>
      <point x="806" y="1054"/>
      <point x="806" y="1125" type="curve" smooth="yes"/>
      <point x="806" y="1192"/>
      <point x="856" y="1239"/>
      <point x="952" y="1239" type="curve" smooth="yes"/>
      <point x="990" y="1239"/>
      <point x="1025" y="1236"/>
      <point x="1058" y="1229" type="curve"/>
      <point x="1045" y="1382" type="line"/>
      <point x="1005" y="1391"/>
      <point x="962" y="1394"/>
      <point x="917" y="1394" type="curve" smooth="yes"/>
      <point x="723" y="1394"/>
      <point x="630" y="1309"/>
      <point x="630" y="1183" type="curve" smooth="yes"/>
      <point x="630" y="1084"/>
      <point x="689" y="1026"/>
      <point x="775" y="986" type="curve"/>
    </contour>
  </outline>
</glyph>
<glyph name="Tippi.gm" format="2">
  <unicode hex="0A70"/>
  <anchor x="500" y="1200" name="_top"/>
  <outline>
    <contour>
      <point x="97" y="1354" type="curve"/>
      <point x="212" y="1354" type="line"/>
      <point x="197" y="1385"/>
      <point x="187" y="1421"/>
      <point x="187" y="1453" type="curve" smooth="yes"/>
      <point x="187" y="1532"/>
      <point x="233" y="1579"/>
      <point x="312" y="1579" type="curve" smooth="yes"/>
      <point x="390" y="1579"/>
      <point x="435" y="1532"/>
      <point x="435" y="1453" type="curve" smooth="yes"/>
      <point x="435" y="1420"/>
      <point x="425" y="1385"/>
      <point x="410" y="1354" type="curve"/>
      <point x="526" y="1354" type="line"/>
      <point x="558" y="1396"/>
      <point x="580" y="1451"/>
      <point x="581" y="1507" type="curve" smooth="yes"/>
      <point x="581" y="1639"/>
      <point x="479" y="1724"/>
      <point x="312" y="1724" type="curve" smooth="yes"/>
      <point x="145" y="1724"/>
      <point x="42" y="1639"/>
      <point x="42" y="1507" type="curve" smooth="yes"/>
      <point x="42" y="1451"/>
      <point x="64" y="1396"/>
    </contour>
  </outline>
</glyph>
<glyph name="Addak.gm" format="2">
  <unicode hex="0A71"/>
  <anchor x="500" y="1200" name="_top"/>
  <outline>
    <contour>
      <point x="307" y="1367" type="curve" smooth="yes"/>
      <point x="497" y="1367"/>
      <point x="587" y="1472"/>
      <point x="584" y="1694" type="curve"/>
      <point x="470" y="1694" type="line"/>
      <point x="461" y="1587"/>
      <point x="406" y="1526"/>
      <point x="306" y="1526" type="curve" smooth="yes"/>
      <point x="203" y="1526"/>
      <point x="149" y="1587"/>
      <point x="140" y="1694" type="curve"/>
      <point x="26" y="1694" type="line"/>
      <point x="24" y="1472"/>
      <point x="114" y="1367"/>
    </contour>
  </outline>
</glyph>
<glyph name="Ura.gm" format="2">
  <advance width="1272"/>
  <unicode hex="0A73"/>
  <anchor x="1600" y="1369" name="top1"/>
  <outline>
    <contour>
      <point x="687" y="-27" type="curve" smooth="yes"/>
      <point x="985" y="-27"/>
      <point x="1131" y="108"/>
      <point x="1131" y="335" type="curve" smooth="yes"/>
      <point x="1131" y="338" type="line" smooth="yes"/>
      <point x="1131" y="514"/>
      <point x="1026" y="643"/>
      <point x="774" y="643" type="curve"/>
      <point x="843" y="581" type="line"/>
      <point x="843" y="643" type="line"/>
      <point x="1049" y="643"/>
      <point x="1167" y="793"/>
      <point x="1167" y="1031" type="curve" smooth="yes"/>
      <point x="1167" y="1144" type="line"/>
      <point x="977" y="1144" type="line"/>
      <point x="977" y="1020" type="line" smooth="yes"/>
      <point x="977" y="824"/>
      <point x="868" y="724"/>
      <point x="686" y="724" type="curve" smooth="yes"/>
      <point x="240" y="724" type="line"/>
      <point x="240" y="558" type="line"/>
      <point x="695" y="558" type="line" smooth="yes"/>
      <point x="857" y="558"/>
      <point x="935" y="480"/>
      <point x="935" y="355" type="curve" smooth="yes"/>
      <point x="935" y="351" type="line" smooth="yes"/>
      <point x="935" y="216"/>
      <point x="858" y="138"/>
      <point x="680" y="138" type="curve" smooth="yes"/>
      <point x="427" y="138"/>
      <point x="324" y="283"/>
      <point x="324" y="571" type="curve"/>
      <point x="324" y="1158" type="line" smooth="yes"/>
      <point x="324" y="1424"/>
      <point x="445" y="1538"/>
      <point x="665" y="1538" type="curve" smooth="yes"/>
      <point x="870" y="1538"/>
      <point x="980" y="1439"/>
      <point x="980" y="1269" type="curve" smooth="yes"/>
      <point x="980" y="1202" type="line"/>
      <point x="1027" y="1215" type="line"/>
      <point x="1027" y="1221" type="line"/>
      <point x="1169" y="1260" type="line"/>
      <point x="1169" y="1302" type="line" smooth="yes"/>
      <point x="1169" y="1549"/>
      <point x="977" y="1704"/>
      <point x="664" y="1704" type="curve" smooth="yes"/>
      <point x="337" y="1704"/>
      <point x="135" y="1521"/>
      <point x="135" y="1146" type="curve"/>
      <point x="135" y="573" type="line"/>
      <point x="135" y="181"/>
      <point x="309" y="-27"/>
    </contour>
    <contour>
      <point x="28" y="1073" type="line"/>
      <point x="236" y="1073" type="line"/>
      <point x="246" y="1076" type="line"/>
      <point x="1073" y="1076" type="line"/>
      <point x="1084" y="1073" type="line"/>
      <point x="1258" y="1073" type="line"/>
      <point x="1258" y="1218" type="line"/>
      <point x="28" y="1218" type="line"/>
    </contour>
    <component base="_cap.shiro_left"/>
    <component base="_cap.shiro_right" xOffset="1018"/>
  </outline>
</glyph>
<glyph name="EkOnkar.gm" format="2">
  <advance width="2309"/>
  <unicode hex="0A74"/>
  <outline>
    <contour>
      <point x="1708" y="-26" type="curve" smooth="yes"/>
      <point x="2016" y="-26"/>
      <point x="2153" y="118"/>
      <point x="2153" y="331" type="curve" smooth="yes"/>
      <point x="2153" y="343" type="line" smooth="yes"/>
      <point x="2153" y="515"/>
      <point x="2054" y="631"/>
      <point x="1815" y="641" type="curve"/>
      <point x="1885" y="580" type="line"/>
      <point x="1885" y="639" type="line"/>
      <point x="2056" y="649"/>
      <point x="2189" y="795"/>
      <point x="2189" y="1032" type="curve" smooth="yes"/>
      <point x="2189" y="1127" type="line"/>
      <point x="1998" y="1127" type="line"/>
      <point x="1998" y="1020" type="line" smooth="yes"/>
      <point x="1998" y="819"/>
      <point x="1889" y="713"/>
      <point x="1707" y="713" type="curve" smooth="yes"/>
      <point x="1259" y="713" type="line"/>
      <point x="1259" y="561" type="line"/>
      <point x="1717" y="561" type="line"/>
      <point x="1878" y="561"/>
      <point x="1955" y="478"/>
      <point x="1955" y="356" type="curve" smooth="yes"/>
      <point x="1955" y="346" type="line" smooth="yes"/>
      <point x="1955" y="219"/>
      <point x="1886" y="132"/>
      <point x="1702" y="132" type="curve" smooth="yes"/>
      <point x="1466" y="132"/>
      <point x="1347" y="262"/>
      <point x="1347" y="573" type="curve" smooth="yes"/>
      <point x="1347" y="1092" type="line" smooth="yes"/>
      <point x="1347" y="1410"/>
      <point x="1486" y="1536"/>
      <point x="1778" y="1536" type="curve" smooth="yes"/>
      <point x="1873" y="1536"/>
      <point x="1964" y="1522"/>
      <point x="2051" y="1497" type="curve"/>
      <point x="2040" y="1656" type="line"/>
      <point x="1959" y="1683"/>
      <point x="1858" y="1700"/>
      <point x="1753" y="1700" type="curve" smooth="yes"/>
      <point x="1371" y="1700"/>
      <point x="1157" y="1511"/>
      <point x="1157" y="1109" type="curve"/>
      <point x="1157" y="574" type="line" smooth="yes"/>
      <point x="1157" y="166"/>
      <point x="1347" y="-26"/>
    </contour>
    <contour>
      <point x="1244" y="1073" type="line"/>
      <point x="1279" y="1073" type="line"/>
      <point x="1287" y="1076" type="line"/>
      <point x="2093" y="1076" type="line"/>
      <point x="2102" y="1073" type="line"/>
      <point x="2267" y="1073" type="line"/>
      <point x="2267" y="1218" type="line"/>
      <point x="1248" y="1218" type="line"/>
    </contour>
    <contour>
      <point x="2051" y="1497" type="line"/>
      <point x="2051" y="1547" type="line" smooth="yes"/>
      <point x="2051" y="1743"/>
      <point x="2168" y="1861"/>
      <point x="2392" y="1861" type="curve" smooth="yes"/>
      <point x="2455" y="1861"/>
      <point x="2527" y="1851"/>
      <point x="2588" y="1833" type="curve"/>
      <point x="2576" y="1994" type="line"/>
      <point x="2507" y="2014"/>
      <point x="2427" y="2026"/>
      <point x="2359" y="2026" type="curve" smooth="yes"/>
      <point x="2058" y="2026"/>
      <point x="1874" y="1865"/>
      <point x="1874" y="1589" type="curve"/>
      <point x="1874" y="1571" type="line"/>
    </contour>
    <component base="one.gm"/>
    <component base="_cap.shiro_right" xOffset="2052"/>
  </outline>
</glyph>
<glyph name="Yakash.gm" format="2">
  <unicode hex="0A75"/>
  <anchor x="700" y="100" name="_bottom"/>
  <anchor x="600" y="320" name="bottom1"/>
  <outline>
    <contour>
      <point x="577" y="-492" type="curve" smooth="yes"/>
      <point x="789" y="-492"/>
      <point x="888" y="-385"/>
      <point x="888" y="-197" type="curve"/>
      <point x="721" y="-197" type="line"/>
      <point x="721" y="-279"/>
      <point x="675" y="-330"/>
      <point x="584" y="-330" type="curve" smooth="yes"/>
      <point x="491" y="-330"/>
      <point x="443" y="-280"/>
      <point x="443" y="-200" type="curve" smooth="yes"/>
      <point x="443" y="28" type="line"/>
      <point x="254" y="28" type="line"/>
      <point x="254" y="-200" type="line" smooth="yes"/>
      <point x="254" y="-384"/>
      <point x="355" y="-492"/>
    </contour>
  </outline>
</glyph>
<glyph name="quoteright" format="2">
  <advance width="407"/>
  <unicode hex="2019"/>
  <outline>
    <contour>
      <point x="316" y="1324" type="curve"/>
      <point x="130" y="1324" type="line"/>
      <point x="134" y="1281"/>
      <point x="137" y="1245"/>
      <point x="137" y="1203" type="curve" smooth="yes"/>
      <point x="137" y="1065"/>
      <point x="108" y="953"/>
      <point x="49" y="852" type="curve"/>
      <point x="188" y="814" type="line"/>
      <point x="285" y="930"/>
      <point x="325" y="1059"/>
      <point x="325" y="1213" type="curve" smooth="yes"/>
      <point x="325" y="1258"/>
      <point x="320" y="1298"/>
    </contour>
  </outline>
</glyph>
<glyph name="Khanda.gm" format="2">
  <advance width="1779"/>
  <unicode hex="262C"/>
  <outline>
    <contour>
      <point x="800" y="-8" type="line"/>
      <point x="977" y="-8" type="line"/>
      <point x="930" y="192" type="line"/>
      <point x="1108" y="49" type="line"/>
      <point x="1222" y="147" type="line"/>
      <point x="970" y="251" type="line"/>
      <point x="1191" y="251"/>
      <point x="1598" y="423"/>
      <point x="1598" y="825" type="curve" smooth="yes"/>
      <point x="1598" y="1039"/>
      <point x="1469" y="1190"/>
      <point x="1292" y="1205" type="curve"/>
      <point x="1349" y="1135"/>
      <point x="1394" y="1035"/>
      <point x="1394" y="879" type="curve" smooth="yes"/>
      <point x="1394" y="494"/>
      <point x="1104" y="355"/>
      <point x="926" y="337" type="curve"/>
      <point x="926" y="401" type="line"/>
      <point x="1043" y="473" type="line"/>
      <point x="995" y="606"/>
      <point x="972" y="743"/>
      <point x="972" y="879" type="curve" smooth="yes"/>
      <point x="972" y="1024"/>
      <point x="998" y="1170"/>
      <point x="1051" y="1311" type="curve"/>
      <point x="896" y="1461" type="line"/>
      <point x="735" y="1311" type="line"/>
      <point x="789" y="1169"/>
      <point x="818" y="1023"/>
      <point x="818" y="876" type="curve" smooth="yes"/>
      <point x="818" y="740"/>
      <point x="795" y="604"/>
      <point x="747" y="473" type="curve"/>
      <point x="850" y="406" type="line"/>
      <point x="850" y="337" type="line"/>
      <point x="671" y="355"/>
      <point x="385" y="494"/>
      <point x="385" y="879" type="curve" smooth="yes"/>
      <point x="385" y="1035"/>
      <point x="431" y="1135"/>
      <point x="488" y="1205" type="curve"/>
      <point x="310" y="1190"/>
      <point x="181" y="1039"/>
      <point x="181" y="825" type="curve" smooth="yes"/>
      <point x="181" y="423"/>
      <point x="584" y="251"/>
      <point x="805" y="251" type="curve"/>
      <point x="555" y="147" type="line"/>
      <point x="668" y="49" type="line"/>
      <point x="846" y="192" type="line"/>
    </contour>
    <contour>
      <point x="894" y="533" type="curve" smooth="yes"/>
      <point x="1134" y="533"/>
      <point x="1288" y="671"/>
      <point x="1288" y="895" type="curve" smooth="yes"/>
      <point x="1288" y="1120"/>
      <point x="1134" y="1256"/>
      <point x="894" y="1256" type="curve" smooth="yes"/>
      <point x="652" y="1256"/>
      <point x="499" y="1120"/>
      <point x="499" y="895" type="curve" smooth="yes"/>
      <point x="499" y="671"/>
      <point x="652" y="533"/>
    </contour>
    <contour>
      <point x="894" y="578" type="curve" smooth="yes"/>
      <point x="726" y="578"/>
      <point x="651" y="689"/>
      <point x="651" y="895" type="curve" smooth="yes"/>
      <point x="651" y="1101"/>
      <point x="726" y="1212"/>
      <point x="894" y="1212" type="curve" smooth="yes"/>
      <point x="1060" y="1212"/>
      <point x="1136" y="1101"/>
      <point x="1136" y="895" type="curve" smooth="yes"/>
      <point x="1136" y="689"/>
      <point x="1060" y="578"/>
    </contour>
  </outline>
</glyph>
<glyph name="Addak.gm.alt" format="2">
  <anchor x="500" y="1200" name="_top1"/>
  <outline>
    <contour>
      <point x="186" y="1390" type="curve" smooth="yes"/>
      <point x="323" y="1390"/>
      <point x="392" y="1470"/>
      <point x="388" y="1634" type="curve"/>
      <point x="294" y="1634" type="line"/>
      <point x="287" y="1572"/>
      <point x="251" y="1538"/>
      <point x="185" y="1538" type="curve" smooth="yes"/>
      <point x="116" y="1538"/>
      <point x="80" y="1572"/>
      <point x="74" y="1634" type="curve"/>
      <point x="-19" y="1634" type="line"/>
      <point x="-24" y="1470"/>
      <point x="45" y="1390"/>
    </contour>
  </outline>
</glyph>
<glyph name="AddakBindiDist.gm" format="2">
  <anchor x="463" y="1200" name="_top"/>
  <outline>
    <contour>
      <point x="307" y="1595" type="curve" smooth="yes"/>
      <point x="376" y="1595"/>
      <point x="406" y="1632"/>
      <point x="406" y="1693" type="curve" smooth="yes"/>
      <point x="406" y="1700" type="line" smooth="yes"/>
      <point x="406" y="1761"/>
      <point x="376" y="1798"/>
      <point x="307" y="1798" type="curve" smooth="yes"/>
      <point x="236" y="1798"/>
      <point x="207" y="1761"/>
      <point x="207" y="1700" type="curve" smooth="yes"/>
      <point x="207" y="1693" type="line" smooth="yes"/>
      <point x="207" y="1633"/>
      <point x="236" y="1595"/>
    </contour>
    <contour>
      <point x="307" y="1367" type="curve" smooth="yes"/>
      <point x="497" y="1367"/>
      <point x="587" y="1472"/>
      <point x="584" y="1694" type="curve"/>
      <point x="470" y="1694" type="line"/>
      <point x="461" y="1587"/>
      <point x="406" y="1526"/>
      <point x="306" y="1526" type="curve" smooth="yes"/>
      <point x="203" y="1526"/>
      <point x="149" y="1587"/>
      <point x="140" y="1694" type="curve"/>
      <point x="26" y="1694" type="line"/>
      <point x="24" y="1472"/>
      <point x="114" y="1367"/>
    </contour>
  </outline>
</glyph>
<glyph name="AddhaMa.gm" format="2">
  <advance width="1155"/>
  <anchor x="1175" y="100" name="bottom1"/>
  <anchor x="1081" y="1200" name="top"/>
  <outline>
    <contour>
      <point x="59" y="438" type="line"/>
      <point x="871" y="438" type="line"/>
      <point x="871" y="595" type="line"/>
      <point x="59" y="595" type="line"/>
    </contour>
    <component base="_danda" xOffset="628"/>
  </outline>
</glyph>
<glyph name="AddhaTha.gm" format="2">
  <advance width="1148"/>
  <anchor x="1168" y="100" name="bottom1"/>
  <anchor x="1075" y="1200" name="top"/>
  <outline>
    <contour>
      <point x="448" y="204" type="curve" smooth="yes"/>
      <point x="586" y="204"/>
      <point x="725" y="226"/>
      <point x="842" y="268" type="curve"/>
      <point x="842" y="427" type="line"/>
      <point x="725" y="385"/>
      <point x="586" y="363"/>
      <point x="448" y="363" type="curve" smooth="yes"/>
      <point x="313" y="363"/>
      <point x="173" y="386"/>
      <point x="54" y="428" type="curve"/>
      <point x="54" y="267" type="line"/>
      <point x="174" y="226"/>
      <point x="313" y="204"/>
    </contour>
    <contour>
      <point x="27" y="1073" type="line"/>
      <point x="919" y="1073" type="line"/>
      <point x="919" y="1218" type="line"/>
      <point x="27" y="1218" type="line"/>
    </contour>
    <component base="_danda" xOffset="621"/>
    <component base="_cap.shiro_left"/>
  </outline>
</glyph>
<glyph name="AddhaYa.gm" format="2">
  <advance width="1316"/>
  <anchor x="1260" y="100" name="bottom1"/>
  <anchor x="1242" y="1200" name="top"/>
  <outline>
    <contour>
      <point x="368" y="154" type="curve" smooth="yes"/>
      <point x="476" y="154"/>
      <point x="582" y="172"/>
      <point x="660" y="204" type="curve"/>
      <point x="660" y="617" type="line"/>
      <point x="1044" y="617" type="line"/>
      <point x="1044" y="777" type="line"/>
      <point x="476" y="777" type="line"/>
      <point x="476" y="291" type="line"/>
      <point x="531" y="340" type="line"/>
      <point x="487" y="322"/>
      <point x="420" y="313"/>
      <point x="348" y="313" type="curve" smooth="yes"/>
      <point x="238" y="313"/>
      <point x="131" y="334"/>
      <point x="47" y="378" type="curve"/>
      <point x="47" y="216" type="line"/>
      <point x="137" y="174"/>
      <point x="250" y="154"/>
    </contour>
    <contour>
      <point x="8" y="1073" type="line"/>
      <point x="1106" y="1073" type="line"/>
      <point x="1106" y="1218" type="line"/>
      <point x="8" y="1218" type="line"/>
    </contour>
    <component base="_danda" xOffset="789"/>
    <component base="_cap.shiro_left"/>
  </outline>
</glyph>
<glyph name="Bindi.gm.alt" format="2">
  <anchor x="500" y="1200" name="_top1"/>
  <outline>
    <contour>
      <point x="131" y="1423" type="curve" smooth="yes"/>
      <point x="204" y="1423"/>
      <point x="236" y="1462"/>
      <point x="236" y="1526" type="curve" smooth="yes"/>
      <point x="236" y="1534" type="line" smooth="yes"/>
      <point x="236" y="1598"/>
      <point x="203" y="1638"/>
      <point x="131" y="1638" type="curve" smooth="yes"/>
      <point x="57" y="1638"/>
      <point x="26" y="1597"/>
      <point x="26" y="1534" type="curve" smooth="yes"/>
      <point x="26" y="1526" type="line" smooth="yes"/>
      <point x="26" y="1463"/>
      <point x="57" y="1423"/>
    </contour>
  </outline>
</glyph>
<glyph name="KaViramaRa.gm" format="2">
  <advance width="1262"/>
  <anchor x="1192" y="-211" name="bottom"/>
  <anchor x="1360" y="-259" name="bottom1"/>
  <anchor x="1236" y="1200" name="top"/>
  <outline>
    <contour>
      <point x="591" y="-323" type="line"/>
      <point x="1016" y="-323" type="line"/>
      <point x="1116" y="-257" type="line"/>
      <point x="1136" y="-188"/>
      <point x="1141" y="-110"/>
      <point x="1141" y="-38" type="curve"/>
      <point x="1141" y="19" type="line"/>
      <point x="1141" y="306"/>
      <point x="1044" y="484"/>
      <point x="937" y="598" type="curve"/>
      <point x="911" y="636" type="line"/>
      <point x="816" y="784"/>
      <point x="677" y="892"/>
      <point x="465" y="892" type="curve" smooth="yes"/>
      <point x="223" y="892"/>
      <point x="94" y="773"/>
      <point x="94" y="565" type="curve" smooth="yes"/>
      <point x="94" y="520" type="line"/>
      <point x="94" y="312"/>
      <point x="232" y="196"/>
      <point x="478" y="196" type="curve" smooth="yes"/>
      <point x="689" y="196"/>
      <point x="839" y="307"/>
      <point x="922" y="460" type="curve"/>
      <point x="945" y="500" type="line"/>
      <point x="1056" y="653"/>
      <point x="1115" y="829"/>
      <point x="1135" y="1005" type="curve" smooth="yes"/>
      <point x="1151" y="1143" type="line"/>
      <point x="951" y="1141" type="line"/>
      <point x="937" y="1013" type="line" smooth="yes"/>
      <point x="920" y="861"/>
      <point x="880" y="736"/>
      <point x="826" y="630" type="curve"/>
      <point x="826" y="578" type="line"/>
      <point x="767" y="456"/>
      <point x="651" y="354"/>
      <point x="505" y="354" type="curve" smooth="yes"/>
      <point x="360" y="354"/>
      <point x="290" y="413"/>
      <point x="290" y="522" type="curve" smooth="yes"/>
      <point x="290" y="564" type="line" smooth="yes"/>
      <point x="290" y="672"/>
      <point x="359" y="734"/>
      <point x="505" y="734" type="curve" smooth="yes"/>
      <point x="656" y="734"/>
      <point x="762" y="630"/>
      <point x="825" y="517" type="curve"/>
      <point x="840" y="466" type="line"/>
      <point x="884" y="392"/>
      <point x="949" y="232"/>
      <point x="949" y="20" type="curve"/>
      <point x="949" y="-33" type="line"/>
      <point x="949" y="-100"/>
      <point x="945" y="-159"/>
      <point x="938" y="-197" type="curve"/>
      <point x="971" y="-156" type="line"/>
      <point x="591" y="-156" type="line"/>
    </contour>
    <contour>
      <point x="1429" y="-603" type="curve"/>
      <point x="1408" y="-415" type="line"/>
      <point x="1312" y="-340"/>
      <point x="1138" y="-235"/>
      <point x="1014" y="-173" type="curve"/>
      <point x="934" y="-294" type="line"/>
      <point x="1084" y="-367"/>
      <point x="1306" y="-508"/>
    </contour>
    <contour>
      <point x="21" y="1072" type="line"/>
      <point x="1266" y="1072" type="line"/>
      <point x="1266" y="1218" type="line"/>
      <point x="21" y="1218" type="line"/>
    </contour>
    <component base="_cap.shiro_left"/>
    <component base="_cap.shiro_right" xOffset="1021"/>
  </outline>
</glyph>
<glyph name="LaHa.gm" format="2">
  <advance width="1408"/>
  <anchor x="1405" y="-488" name="bottom1"/>
  <anchor x="1289" y="1200" name="top"/>
  <outline>
    <contour>
      <point x="708" y="387" type="curve"/>
      <point x="928" y="531"/>
      <point x="1131" y="797"/>
      <point x="1182" y="1125" type="curve"/>
      <point x="1186" y="1150" type="line"/>
      <point x="992" y="1150" type="line"/>
      <point x="984" y="1107" type="line"/>
      <point x="936" y="884"/>
      <point x="841" y="714"/>
      <point x="708" y="584" type="curve"/>
      <point x="564" y="711"/>
      <point x="470" y="886"/>
      <point x="427" y="1107" type="curve"/>
      <point x="420" y="1150" type="line"/>
      <point x="226" y="1150" type="line"/>
      <point x="230" y="1125" type="line"/>
      <point x="278" y="796"/>
      <point x="467" y="531"/>
    </contour>
    <contour>
      <point x="231" y="0" type="curve"/>
      <point x="423" y="0" type="line"/>
      <point x="432" y="6" type="line"/>
      <point x="349" y="108"/>
      <point x="307" y="215"/>
      <point x="307" y="353" type="curve" smooth="yes"/>
      <point x="307" y="361" type="line" smooth="yes"/>
      <point x="307" y="499"/>
      <point x="366" y="599"/>
      <point x="467" y="651" type="curve"/>
      <point x="405" y="809" type="line"/>
      <point x="214" y="743"/>
      <point x="113" y="589"/>
      <point x="113" y="371" type="curve" smooth="yes"/>
      <point x="113" y="363" type="line" smooth="yes"/>
      <point x="113" y="212"/>
      <point x="152" y="98"/>
    </contour>
    <contour>
      <point x="1172" y="0" type="line"/>
      <point x="1253" y="94"/>
      <point x="1294" y="210"/>
      <point x="1294" y="356" type="curve" smooth="yes"/>
      <point x="1294" y="368" type="line" smooth="yes"/>
      <point x="1294" y="589"/>
      <point x="1193" y="742"/>
      <point x="1000" y="809" type="curve"/>
      <point x="937" y="651" type="line"/>
      <point x="1042" y="599"/>
      <point x="1100" y="498"/>
      <point x="1100" y="362" type="curve" smooth="yes"/>
      <point x="1100" y="353" type="line" smooth="yes"/>
      <point x="1100" y="208"/>
      <point x="1066" y="120"/>
      <point x="983" y="21" type="curve"/>
      <point x="983" y="0" type="line"/>
    </contour>
    <contour>
      <point x="26" y="1073" type="line"/>
      <point x="1364" y="1073" type="line"/>
      <point x="1364" y="1218" type="line"/>
      <point x="26" y="1218" type="line"/>
    </contour>
    <contour>
      <point x="807" y="-670" type="curve" smooth="yes"/>
      <point x="1060" y="-670"/>
      <point x="1172" y="-552"/>
      <point x="1172" y="-358" type="curve" smooth="yes"/>
      <point x="1172" y="0" type="line"/>
      <point x="983" y="0" type="line"/>
      <point x="983" y="-366" type="line" smooth="yes"/>
      <point x="983" y="-469"/>
      <point x="922" y="-517"/>
      <point x="802" y="-517" type="curve" smooth="yes"/>
      <point x="676" y="-517"/>
      <point x="597" y="-453"/>
      <point x="597" y="-356" type="curve" smooth="yes"/>
      <point x="597" y="-354" type="line" smooth="yes"/>
      <point x="597" y="-292"/>
      <point x="635" y="-254"/>
      <point x="711" y="-254" type="curve" smooth="yes"/>
      <point x="851" y="-254" type="line"/>
      <point x="851" y="-103" type="line"/>
      <point x="693" y="-103" type="line" smooth="yes"/>
      <point x="508" y="-103"/>
      <point x="406" y="-189"/>
      <point x="406" y="-351" type="curve" smooth="yes"/>
      <point x="406" y="-354" type="line" smooth="yes"/>
      <point x="406" y="-529"/>
      <point x="545" y="-670"/>
    </contour>
    <component base="_cap.shiro_left"/>
    <component base="_cap.shiro_right" xOffset="1151"/>
  </outline>
</glyph>
<glyph name="MatraAi.gm.alt" format="2">
  <anchor x="500" y="1200" name="_top"/>
  <anchor x="854" y="1390" name="top1"/>
  <outline>
    <contour>
      <point x="327" y="1198" type="line"/>
      <point x="397" y="1198" type="line"/>
      <point x="392" y="1326" type="line" smooth="yes"/>
      <point x="378" y="1682"/>
      <point x="251" y="1846"/>
      <point x="-63" y="1846" type="curve" smooth="yes"/>
      <point x="-118" y="1846"/>
      <point x="-173" y="1840"/>
      <point x="-248" y="1826" type="curve"/>
      <point x="-257" y="1669" type="line"/>
      <point x="-188" y="1684"/>
      <point x="-118" y="1692"/>
      <point x="-60" y="1692" type="curve" smooth="yes"/>
      <point x="198" y="1692"/>
      <point x="288" y="1559"/>
      <point x="323" y="1350" type="curve"/>
      <point x="312" y="1347" type="line"/>
    </contour>
    <contour>
      <point x="289" y="1198" type="line"/>
      <point x="340" y="1198" type="line"/>
      <point x="337" y="1239" type="line" smooth="yes"/>
      <point x="322" y="1441"/>
      <point x="212" y="1559"/>
      <point x="-24" y="1559" type="curve" smooth="yes"/>
      <point x="-75" y="1559"/>
      <point x="-128" y="1553"/>
      <point x="-183" y="1543" type="curve"/>
      <point x="-191" y="1387" type="line"/>
      <point x="-119" y="1398"/>
      <point x="-72" y="1405"/>
      <point x="-8" y="1405" type="curve" smooth="yes"/>
      <point x="186" y="1405"/>
      <point x="273" y="1334"/>
      <point x="287" y="1215" type="curve" smooth="yes"/>
    </contour>
  </outline>
</glyph>
<glyph name="MatraAu.gm.alt" format="2">
  <anchor x="500" y="1200" name="_top"/>
  <anchor x="999" y="1454" name="top1"/>
  <outline>
    <contour>
      <point x="118" y="1353" type="curve"/>
      <point x="238" y="1353" type="line"/>
      <point x="224" y="1381"/>
      <point x="214" y="1411"/>
      <point x="214" y="1445" type="curve" smooth="yes"/>
      <point x="214" y="1513"/>
      <point x="252" y="1555"/>
      <point x="319" y="1555" type="curve" smooth="yes"/>
      <point x="389" y="1555"/>
      <point x="423" y="1514"/>
      <point x="423" y="1445" type="curve" smooth="yes"/>
      <point x="423" y="1411"/>
      <point x="414" y="1381"/>
      <point x="400" y="1353" type="curve"/>
      <point x="519" y="1353" type="line"/>
      <point x="552" y="1393"/>
      <point x="570" y="1440"/>
      <point x="570" y="1498" type="curve" smooth="yes"/>
      <point x="570" y="1626"/>
      <point x="478" y="1712"/>
      <point x="318" y="1712" type="curve" smooth="yes"/>
      <point x="263" y="1712"/>
      <point x="208" y="1694"/>
      <point x="169" y="1660" type="curve"/>
      <point x="175" y="1638" type="line"/>
      <point x="107" y="1610"/>
      <point x="69" y="1552"/>
      <point x="69" y="1484" type="curve"/>
      <point x="69" y="1434"/>
      <point x="87" y="1391"/>
    </contour>
    <contour>
      <point x="8" y="1561" type="curve" smooth="yes"/>
      <point x="64" y="1561"/>
      <point x="100" y="1575"/>
      <point x="128" y="1595" type="curve"/>
      <point x="135" y="1595" type="line"/>
      <point x="298" y="1594" type="line"/>
      <point x="318" y="1712" type="line"/>
      <point x="115" y="1711" type="line" smooth="yes"/>
      <point x="5" y="1710"/>
      <point x="-64" y="1742"/>
      <point x="-71" y="1866" type="curve"/>
      <point x="-186" y="1866" type="line"/>
      <point x="-182" y="1775" type="line" smooth="yes"/>
      <point x="-175" y="1626"/>
      <point x="-106" y="1561"/>
    </contour>
  </outline>
</glyph>
<glyph name="MatraEe.gm.alt" format="2">
  <anchor x="500" y="1200" name="_top"/>
  <anchor x="768" y="1369" name="top1"/>
  <outline>
    <contour>
      <point x="288" y="1195" type="line"/>
      <point x="389" y="1195" type="line"/>
      <point x="348" y="1589"/>
      <point x="214" y="1715"/>
      <point x="-66" y="1715" type="curve" smooth="yes"/>
      <point x="-117" y="1715"/>
      <point x="-161" y="1711"/>
      <point x="-210" y="1703" type="curve"/>
      <point x="-222" y="1539" type="line"/>
      <point x="-169" y="1548"/>
      <point x="-109" y="1551"/>
      <point x="-71" y="1551" type="curve" smooth="yes"/>
      <point x="164" y="1551"/>
      <point x="239" y="1442"/>
      <point x="286" y="1205" type="curve" smooth="yes"/>
    </contour>
  </outline>
</glyph>
<glyph name="MatraEeTa.gm" format="2">
  <anchor x="500" y="1200" name="_top"/>
  <anchor x="758" y="1369" name="top1"/>
  <outline>
    <contour>
      <point x="288" y="1195" type="line"/>
      <point x="388" y="1195" type="line"/>
      <point x="351" y="1587"/>
      <point x="185" y="1718"/>
      <point x="-159" y="1718" type="curve" smooth="yes"/>
      <point x="-222" y="1718"/>
      <point x="-277" y="1713"/>
      <point x="-338" y="1706" type="curve"/>
      <point x="-353" y="1532" type="line"/>
      <point x="-286" y="1540"/>
      <point x="-213" y="1544"/>
      <point x="-164" y="1544" type="curve" smooth="yes"/>
      <point x="134" y="1544"/>
      <point x="239" y="1439"/>
      <point x="286" y="1205" type="curve" smooth="yes"/>
    </contour>
  </outline>
</glyph>
<glyph name="MatraIiBindi.gm" format="2">
  <advance width="504"/>
  <anchor x="758" y="1369" name="top1"/>
  <outline>
    <contour>
      <point x="380" y="1592" type="curve" smooth="yes"/>
      <point x="447" y="1592"/>
      <point x="476" y="1627"/>
      <point x="476" y="1686" type="curve" smooth="yes"/>
      <point x="476" y="1693" type="line" smooth="yes"/>
      <point x="476" y="1752"/>
      <point x="446" y="1788"/>
      <point x="380" y="1788" type="curve" smooth="yes"/>
      <point x="312" y="1788"/>
      <point x="284" y="1751"/>
      <point x="284" y="1693" type="curve" smooth="yes"/>
      <point x="284" y="1686" type="line" smooth="yes"/>
      <point x="284" y="1628"/>
      <point x="312" y="1592"/>
    </contour>
    <component base="MatraIi.gm"/>
  </outline>
</glyph>
<glyph name="MatraOo.gm.alt" format="2">
  <anchor x="500" y="1200" name="_top"/>
  <anchor x="792" y="1373" name="top1"/>
  <outline>
    <contour>
      <point x="292" y="1211" type="curve"/>
      <point x="393" y="1211" type="line"/>
      <point x="397" y="1245"/>
      <point x="399" y="1274"/>
      <point x="399" y="1300" type="curve" smooth="yes"/>
      <point x="399" y="1501"/>
      <point x="312" y="1573"/>
      <point x="116" y="1594" type="curve" smooth="yes"/>
      <point x="46" y="1599" type="line" smooth="yes"/>
      <point x="-68" y="1611"/>
      <point x="-127" y="1658"/>
      <point x="-133" y="1798" type="curve"/>
      <point x="-233" y="1798" type="line"/>
      <point x="-233" y="1706" type="line" smooth="yes"/>
      <point x="-233" y="1529"/>
      <point x="-149" y="1448"/>
      <point x="35" y="1430" type="curve" smooth="yes"/>
      <point x="106" y="1424" type="line" smooth="yes"/>
      <point x="233" y="1412"/>
      <point x="286" y="1366"/>
    </contour>
  </outline>
</glyph>
<glyph name="MatraU.gm.alt" format="2">
  <anchor x="600" y="100" name="_bottom1"/>
  <outline>
    <contour>
      <point x="76" y="-953" type="curve" smooth="yes"/>
      <point x="198" y="-953"/>
      <point x="312" y="-932"/>
      <point x="393" y="-898" type="curve"/>
      <point x="400" y="-753" type="line"/>
      <point x="319" y="-787"/>
      <point x="200" y="-809"/>
      <point x="82" y="-809" type="curve" smooth="yes"/>
      <point x="-36" y="-809"/>
      <point x="-161" y="-787"/>
      <point x="-245" y="-753" type="curve"/>
      <point x="-238" y="-898" type="line"/>
      <point x="-153" y="-933"/>
      <point x="-38" y="-953"/>
    </contour>
  </outline>
</glyph>
<glyph name="MatraUu.gm.alt" format="2">
  <anchor x="600" y="100" name="_bottom1"/>
  <outline>
    <contour>
      <point x="67" y="-918" type="curve" smooth="yes"/>
      <point x="190" y="-918"/>
      <point x="303" y="-896"/>
      <point x="384" y="-862" type="curve"/>
      <point x="392" y="-740" type="line"/>
      <point x="310" y="-773"/>
      <point x="191" y="-796"/>
      <point x="73" y="-796" type="curve" smooth="yes"/>
      <point x="-45" y="-796"/>
      <point x="-170" y="-774"/>
      <point x="-254" y="-740" type="curve"/>
      <point x="-246" y="-862" type="line"/>
      <point x="-162" y="-897"/>
      <point x="-46" y="-918"/>
    </contour>
    <contour>
      <point x="66" y="-1119" type="curve" smooth="yes"/>
      <point x="189" y="-1119"/>
      <point x="302" y="-1098"/>
      <point x="383" y="-1064" type="curve"/>
      <point x="391" y="-941" type="line"/>
      <point x="309" y="-974"/>
      <point x="190" y="-997"/>
      <point x="72" y="-997" type="curve" smooth="yes"/>
      <point x="-46" y="-997"/>
      <point x="-171" y="-975"/>
      <point x="-254" y="-941" type="curve"/>
      <point x="-247" y="-1064" type="line"/>
      <point x="-163" y="-1099"/>
      <point x="-47" y="-1119"/>
    </contour>
  </outline>
</glyph>
<glyph name="NaHa.gm" format="2">
  <advance width="1235"/>
  <anchor x="1242" y="-488" name="bottom1"/>
  <anchor x="818" y="1200" name="top"/>
  <outline>
    <contour>
      <point x="224" y="0" type="curve"/>
      <point x="426" y="0" type="line"/>
      <point x="423" y="10" type="line"/>
      <point x="339" y="113"/>
      <point x="304" y="220"/>
      <point x="304" y="348" type="curve" smooth="yes"/>
      <point x="304" y="362" type="line" smooth="yes"/>
      <point x="304" y="544"/>
      <point x="421" y="644"/>
      <point x="621" y="705" type="curve"/>
      <point x="817" y="644"/>
      <point x="937" y="544"/>
      <point x="937" y="362" type="curve" smooth="yes"/>
      <point x="937" y="348" type="line" smooth="yes"/>
      <point x="937" y="219"/>
      <point x="902" y="114"/>
      <point x="820" y="11" type="curve"/>
      <point x="820" y="0" type="line"/>
      <point x="1009" y="0" type="line"/>
      <point x="1097" y="93"/>
      <point x="1132" y="206"/>
      <point x="1132" y="356" type="curve" smooth="yes"/>
      <point x="1132" y="371" type="line" smooth="yes"/>
      <point x="1132" y="636"/>
      <point x="953" y="795"/>
      <point x="621" y="865" type="curve"/>
      <point x="287" y="795"/>
      <point x="109" y="636"/>
      <point x="109" y="371" type="curve" smooth="yes"/>
      <point x="109" y="357" type="line" smooth="yes"/>
      <point x="109" y="205"/>
      <point x="148" y="91"/>
    </contour>
    <contour>
      <point x="527" y="766" type="line"/>
      <point x="718" y="766" type="line"/>
      <point x="718" y="1141" type="line"/>
      <point x="527" y="1141" type="line"/>
    </contour>
    <contour>
      <point x="39" y="1073" type="line"/>
      <point x="1198" y="1073" type="line"/>
      <point x="1198" y="1218" type="line"/>
      <point x="39" y="1218" type="line"/>
    </contour>
    <contour>
      <point x="644" y="-670" type="curve" smooth="yes"/>
      <point x="897" y="-670"/>
      <point x="1009" y="-552"/>
      <point x="1009" y="-358" type="curve" smooth="yes"/>
      <point x="1009" y="0" type="line"/>
      <point x="820" y="0" type="line"/>
      <point x="820" y="-366" type="line" smooth="yes"/>
      <point x="820" y="-469"/>
      <point x="759" y="-517"/>
      <point x="639" y="-517" type="curve" smooth="yes"/>
      <point x="513" y="-517"/>
      <point x="434" y="-453"/>
      <point x="434" y="-356" type="curve" smooth="yes"/>
      <point x="434" y="-354" type="line" smooth="yes"/>
      <point x="434" y="-292"/>
      <point x="472" y="-254"/>
      <point x="548" y="-254" type="curve" smooth="yes"/>
      <point x="688" y="-254" type="line"/>
      <point x="688" y="-103" type="line"/>
      <point x="530" y="-103" type="line" smooth="yes"/>
      <point x="345" y="-103"/>
      <point x="243" y="-189"/>
      <point x="243" y="-351" type="curve" smooth="yes"/>
      <point x="243" y="-354" type="line" smooth="yes"/>
      <point x="243" y="-529"/>
      <point x="382" y="-670"/>
    </contour>
    <component base="_cap.shiro_left"/>
    <component base="_cap.shiro_right" xOffset="978"/>
  </outline>
</glyph>
<glyph name="NaViramaRa.gm" format="2">
  <advance width="1235"/>
  <anchor x="1056" y="-236" name="bottom"/>
  <anchor x="1224" y="-284" name="bottom1"/>
  <anchor x="818" y="1200" name="top"/>
  <outline>
    <contour>
      <point x="224" y="0" type="curve"/>
      <point x="441" y="0" type="line"/>
      <point x="438" y="10" type="line"/>
      <point x="350" y="108"/>
      <point x="304" y="226"/>
      <point x="304" y="356" type="curve" smooth="yes"/>
      <point x="304" y="362" type="line" smooth="yes"/>
      <point x="304" y="544"/>
      <point x="421" y="644"/>
      <point x="621" y="705" type="curve"/>
      <point x="817" y="644"/>
      <point x="937" y="544"/>
      <point x="937" y="362" type="curve" smooth="yes"/>
      <point x="937" y="356" type="line" smooth="yes"/>
      <point x="937" y="239"/>
      <point x="898" y="130"/>
      <point x="821" y="36" type="curve"/>
      <point x="821" y="0" type="line"/>
      <point x="1016" y="0" type="line"/>
      <point x="1092" y="95"/>
      <point x="1132" y="217"/>
      <point x="1132" y="356" type="curve" smooth="yes"/>
      <point x="1132" y="361" type="line" smooth="yes"/>
      <point x="1132" y="631"/>
      <point x="953" y="794"/>
      <point x="621" y="865" type="curve"/>
      <point x="287" y="794"/>
      <point x="109" y="631"/>
      <point x="109" y="361" type="curve" smooth="yes"/>
      <point x="109" y="357" type="line" smooth="yes"/>
      <point x="109" y="213"/>
      <point x="148" y="90"/>
    </contour>
    <contour>
      <point x="527" y="766" type="line"/>
      <point x="718" y="766" type="line"/>
      <point x="718" y="1141" type="line"/>
      <point x="527" y="1141" type="line"/>
    </contour>
    <contour>
      <point x="39" y="1073" type="line"/>
      <point x="1198" y="1073" type="line"/>
      <point x="1198" y="1218" type="line"/>
      <point x="39" y="1218" type="line"/>
    </contour>
    <contour>
      <point x="1293" y="-628" type="curve"/>
      <point x="1273" y="-440" type="line"/>
      <point x="1164" y="-358"/>
      <point x="1028" y="-278"/>
      <point x="876" y="-206" type="curve"/>
      <point x="796" y="-326" type="line"/>
      <point x="944" y="-397"/>
      <point x="1168" y="-535"/>
    </contour>
    <contour>
      <point x="455" y="-338" type="line"/>
      <point x="863" y="-338" type="line"/>
      <point x="949" y="-273" type="line"/>
      <point x="991" y="-214"/>
      <point x="1016" y="-133"/>
      <point x="1016" y="-38" type="curve" smooth="yes"/>
      <point x="1016" y="5" type="line"/>
      <point x="821" y="8" type="line"/>
      <point x="821" y="-27" type="line" smooth="yes"/>
      <point x="821" y="-110"/>
      <point x="810" y="-177"/>
      <point x="790" y="-225" type="curve"/>
      <point x="835" y="-171" type="line"/>
      <point x="455" y="-171" type="line"/>
    </contour>
    <component base="_cap.shiro_left"/>
    <component base="_cap.shiro_right" xOffset="978"/>
  </outline>
</glyph>
<glyph name="Nukta.gm.001" format="2">
  <outline>
    <contour>
      <point x="-925" y="-272" type="curve" smooth="yes"/>
      <point x="-856" y="-272"/>
      <point x="-821" y="-233"/>
      <point x="-821" y="-166" type="curve" smooth="yes"/>
      <point x="-821" y="-155" type="line" smooth="yes"/>
      <point x="-821" y="-88"/>
      <point x="-856" y="-49"/>
      <point x="-925" y="-49" type="curve" smooth="yes"/>
      <point x="-992" y="-49"/>
      <point x="-1027" y="-88"/>
      <point x="-1027" y="-155" type="curve" smooth="yes"/>
      <point x="-1027" y="-166" type="line" smooth="yes"/>
      <point x="-1027" y="-233"/>
      <point x="-992" y="-272"/>
    </contour>
  </outline>
</glyph>
<glyph name="PairinHa.gm" format="2">
  <anchor x="700" y="100" name="_bottom"/>
  <anchor x="600" y="100" name="bottom1"/>
  <outline>
    <contour>
      <point x="78" y="-670" type="curve" smooth="yes"/>
      <point x="331" y="-670"/>
      <point x="443" y="-552"/>
      <point x="443" y="-358" type="curve" smooth="yes"/>
      <point x="443" y="82" type="line"/>
      <point x="254" y="77" type="line"/>
      <point x="254" y="-366" type="line" smooth="yes"/>
      <point x="254" y="-469"/>
      <point x="193" y="-517"/>
      <point x="73" y="-517" type="curve" smooth="yes"/>
      <point x="-53" y="-517"/>
      <point x="-132" y="-453"/>
      <point x="-132" y="-356" type="curve" smooth="yes"/>
      <point x="-132" y="-354" type="line" smooth="yes"/>
      <point x="-132" y="-292"/>
      <point x="-94" y="-254"/>
      <point x="-18" y="-254" type="curve" smooth="yes"/>
      <point x="122" y="-254" type="line"/>
      <point x="122" y="-103" type="line"/>
      <point x="-36" y="-103" type="line" smooth="yes"/>
      <point x="-221" y="-103"/>
      <point x="-323" y="-189"/>
      <point x="-323" y="-351" type="curve" smooth="yes"/>
      <point x="-323" y="-354" type="line" smooth="yes"/>
      <point x="-323" y="-529"/>
      <point x="-184" y="-670"/>
    </contour>
  </outline>
</glyph>
<glyph name="PairinRa.gm" format="2">
  <anchor x="700" y="100" name="_bottom"/>
  <anchor x="600" y="400" name="bottom1"/>
  <outline>
    <contour>
      <point x="723" y="-628" type="curve"/>
      <point x="703" y="-440" type="line"/>
      <point x="594" y="-358"/>
      <point x="458" y="-278"/>
      <point x="306" y="-206" type="curve"/>
      <point x="226" y="-326" type="line"/>
      <point x="374" y="-397"/>
      <point x="598" y="-535"/>
    </contour>
    <contour>
      <point x="-115" y="-338" type="line"/>
      <point x="293" y="-338" type="line"/>
      <point x="379" y="-273" type="line"/>
      <point x="421" y="-214"/>
      <point x="443" y="-133"/>
      <point x="443" y="-38" type="curve" smooth="yes"/>
      <point x="443" y="51" type="line"/>
      <point x="254" y="46" type="line"/>
      <point x="254" y="-27" type="line" smooth="yes"/>
      <point x="254" y="-110"/>
      <point x="242" y="-177"/>
      <point x="220" y="-225" type="curve"/>
      <point x="265" y="-171" type="line"/>
      <point x="-115" y="-171" type="line"/>
    </contour>
  </outline>
</glyph>
<glyph name="PairinVa.gm" format="2">
  <anchor x="700" y="100" name="_bottom"/>
  <anchor x="600" y="100" name="bottom1"/>
  <outline>
    <contour>
      <point x="-11" y="-438" type="curve"/>
      <point x="418" y="-438" type="line"/>
      <point x="418" y="-307" type="line"/>
      <point x="9" y="-307" type="line" smooth="yes"/>
      <point x="-38" y="-307"/>
      <point x="-69" y="-291"/>
      <point x="-69" y="-256" type="curve" smooth="yes"/>
      <point x="-69" y="-220"/>
      <point x="-37" y="-204"/>
      <point x="10" y="-204" type="curve" smooth="yes"/>
      <point x="443" y="-204" type="line"/>
      <point x="443" y="97" type="line"/>
      <point x="254" y="82" type="line"/>
      <point x="254" y="-73" type="line"/>
      <point x="-15" y="-73" type="line" smooth="yes"/>
      <point x="-155" y="-73"/>
      <point x="-231" y="-134"/>
      <point x="-231" y="-253" type="curve" smooth="yes"/>
      <point x="-231" y="-370"/>
      <point x="-153" y="-438"/>
    </contour>
    <contour>
      <point x="332" y="-684" type="curve" smooth="yes"/>
      <point x="377" y="-684"/>
      <point x="410" y="-679"/>
      <point x="447" y="-669" type="curve"/>
      <point x="460" y="-535" type="line"/>
      <point x="419" y="-546"/>
      <point x="382" y="-550"/>
      <point x="345" y="-550" type="curve" smooth="yes"/>
      <point x="240" y="-550"/>
      <point x="162" y="-515"/>
      <point x="140" y="-391" type="curve"/>
      <point x="-30" y="-384" type="line"/>
      <point x="24" y="-614"/>
      <point x="153" y="-684"/>
    </contour>
  </outline>
</glyph>
<glyph name="Rha.gm" format="2">
  <advance width="1101"/>
  <anchor x="871" y="-157" name="bottom"/>
  <anchor x="1200" y="-239" name="bottom1"/>
  <anchor x="1040" y="1200" name="top"/>
  <outline>
    <contour>
      <point x="27" y="1073" type="line"/>
      <point x="1083" y="1073" type="line"/>
      <point x="1079" y="1218" type="line"/>
      <point x="27" y="1218" type="line"/>
    </contour>
    <contour>
      <point x="308" y="-189" type="line"/>
      <point x="509" y="-189" type="line"/>
      <point x="255" y="133" type="line"/>
      <point x="84" y="127" type="line"/>
    </contour>
    <contour>
      <point x="871" y="-398" type="curve" smooth="yes"/>
      <point x="1032" y="-398"/>
      <point x="1123" y="-311"/>
      <point x="1123" y="-189" type="curve" smooth="yes"/>
      <point x="1123" y="-150"/>
      <point x="1106" y="-101"/>
      <point x="1068" y="-42" type="curve" smooth="yes"/>
      <point x="894" y="224" type="line"/>
      <point x="782" y="133" type="line"/>
      <point x="940" y="-98" type="line" smooth="yes"/>
      <point x="961" y="-129"/>
      <point x="977" y="-157"/>
      <point x="977" y="-189" type="curve" smooth="yes"/>
      <point x="977" y="-243"/>
      <point x="932" y="-273"/>
      <point x="867" y="-273" type="curve" smooth="yes"/>
      <point x="798" y="-273"/>
      <point x="739" y="-242"/>
      <point x="739" y="-192" type="curve" smooth="yes"/>
      <point x="739" y="-149"/>
      <point x="774" y="-124"/>
      <point x="827" y="-119" type="curve"/>
      <point x="761" y="-20" type="line"/>
      <point x="658" y="-29"/>
      <point x="591" y="-93"/>
      <point x="591" y="-189" type="curve" smooth="yes"/>
      <point x="591" y="-312"/>
      <point x="697" y="-398"/>
    </contour>
    <contour>
      <point x="497" y="36" type="curve" smooth="yes"/>
      <point x="826" y="36"/>
      <point x="982" y="148"/>
      <point x="982" y="353" type="curve" smooth="yes"/>
      <point x="982" y="393" type="line" smooth="yes"/>
      <point x="982" y="569"/>
      <point x="870" y="670"/>
      <point x="690" y="681" type="curve"/>
      <point x="716" y="632" type="line"/>
      <point x="716" y="681" type="line"/>
      <point x="869" y="697"/>
      <point x="961" y="792"/>
      <point x="961" y="982" type="curve" smooth="yes"/>
      <point x="961" y="1113" type="line"/>
      <point x="764" y="1113" type="line"/>
      <point x="764" y="990" type="line" smooth="yes"/>
      <point x="764" y="847"/>
      <point x="703" y="751"/>
      <point x="545" y="751" type="curve" smooth="yes"/>
      <point x="152" y="751" type="line"/>
      <point x="152" y="593" type="line"/>
      <point x="553" y="593" type="line" smooth="yes"/>
      <point x="728" y="593"/>
      <point x="788" y="513"/>
      <point x="788" y="405" type="curve" smooth="yes"/>
      <point x="788" y="373" type="line" smooth="yes"/>
      <point x="788" y="247"/>
      <point x="691" y="193"/>
      <point x="471" y="193" type="curve" smooth="yes"/>
      <point x="314" y="193"/>
      <point x="166" y="231"/>
      <point x="71" y="282" type="curve"/>
      <point x="84" y="127" type="line"/>
      <point x="171" y="80"/>
      <point x="313" y="36"/>
    </contour>
    <component base="_cap.shiro_left"/>
    <component base="_cap.shiro_right" xOffset="859"/>
  </outline>
</glyph>
<glyph name="TippiDist.gm" format="2">
  <anchor x="443" y="1200" name="_top"/>
  <outline>
    <contour>
      <point x="91" y="1354" type="curve"/>
      <point x="206" y="1354" type="line"/>
      <point x="191" y="1385"/>
      <point x="181" y="1421"/>
      <point x="181" y="1453" type="curve" smooth="yes"/>
      <point x="181" y="1532"/>
      <point x="227" y="1579"/>
      <point x="306" y="1579" type="curve" smooth="yes"/>
      <point x="384" y="1579"/>
      <point x="429" y="1532"/>
      <point x="429" y="1453" type="curve" smooth="yes"/>
      <point x="429" y="1420"/>
      <point x="419" y="1385"/>
      <point x="404" y="1354" type="curve"/>
      <point x="520" y="1354" type="line"/>
      <point x="552" y="1396"/>
      <point x="574" y="1451"/>
      <point x="575" y="1507" type="curve" smooth="yes"/>
      <point x="575" y="1639"/>
      <point x="473" y="1724"/>
      <point x="306" y="1724" type="curve" smooth="yes"/>
      <point x="139" y="1724"/>
      <point x="36" y="1639"/>
      <point x="36" y="1507" type="curve" smooth="yes"/>
      <point x="36" y="1451"/>
      <point x="58" y="1396"/>
    </contour>
  </outline>
</glyph>
<glyph name="Virama.gm.alt" format="2">
  <anchor x="700" y="100" name="_bottom1"/>
  <outline>
    <contour>
      <point x="373" y="-1048" type="line"/>
      <point x="532" y="-1049" type="line"/>
      <point x="333" y="-761" type="line"/>
      <point x="156" y="-761" type="line"/>
    </contour>
  </outline>
</glyph>
<glyph name="_EEmatra" format="2">
  <advance width="504"/>
  <anchor x="758" y="1369" name="top1"/>
  <outline>
    <contour>
      <point x="159" y="1190" type="line"/>
      <point x="347" y="1191" type="line"/>
      <point x="347" y="1347" type="line"/>
      <point x="347" y="1583"/>
      <point x="224" y="1712"/>
      <point x="-6" y="1712" type="curve" smooth="yes"/>
      <point x="-229" y="1712"/>
      <point x="-353" y="1584"/>
      <point x="-353" y="1354" type="curve"/>
      <point x="-353" y="1314" type="line"/>
      <point x="-163" y="1314" type="line"/>
      <point x="-163" y="1355" type="line"/>
      <point x="-162" y="1487"/>
      <point x="-108" y="1557"/>
      <point x="-5" y="1557" type="curve" smooth="yes"/>
      <point x="105" y="1557"/>
      <point x="159" y="1488"/>
      <point x="159" y="1347" type="curve"/>
    </contour>
    <contour>
      <point x="157" y="0" type="line"/>
      <point x="347" y="0" type="line"/>
      <point x="347" y="1102" type="line"/>
      <point x="157" y="1102" type="line"/>
    </contour>
    <contour>
      <point x="-81" y="1073" type="line"/>
      <point x="519" y="1073" type="line"/>
      <point x="534" y="1218" type="line"/>
      <point x="-68" y="1218" type="line"/>
    </contour>
  </outline>
</glyph>
<glyph name="_Ematra" format="2">
  <advance width="504"/>
  <outline>
    <contour>
      <point x="157" y="1191" type="line"/>
      <point x="345" y="1190" type="line"/>
      <point x="345" y="1347" type="line"/>
      <point x="345" y="1488"/>
      <point x="399" y="1557"/>
      <point x="508" y="1557" type="curve" smooth="yes"/>
      <point x="612" y="1557"/>
      <point x="665" y="1487"/>
      <point x="666" y="1355" type="curve"/>
      <point x="666" y="1314" type="line"/>
      <point x="855" y="1314" type="line"/>
      <point x="855" y="1354" type="line"/>
      <point x="855" y="1584"/>
      <point x="732" y="1712"/>
      <point x="509" y="1712" type="curve" smooth="yes"/>
      <point x="280" y="1712"/>
      <point x="157" y="1583"/>
      <point x="157" y="1347" type="curve"/>
    </contour>
    <contour>
      <point x="157" y="0" type="line"/>
      <point x="347" y="0" type="line"/>
      <point x="347" y="1106" type="line"/>
      <point x="157" y="1107" type="line"/>
    </contour>
    <contour>
      <point x="-29" y="1073" type="line"/>
      <point x="564" y="1073" type="line"/>
      <point x="578" y="1218" type="line"/>
      <point x="-16" y="1218" type="line"/>
    </contour>
  </outline>
</glyph>
<glyph name="_cap.shiro_right" format="2">
  <advance width="257"/>
  <outline>
    <contour>
      <point x="168" y="1073" type="line"/>
      <point x="273" y="1073" type="line"/>
      <point x="286" y="1218" type="line"/>
      <point x="168" y="1218" type="line"/>
    </contour>
  </outline>
</glyph>
<glyph name="_danda" format="2">
  <advance width="527"/>
  <outline>
    <contour>
      <point x="181" y="0" type="line"/>
      <point x="370" y="0" type="line"/>
      <point x="370" y="1073" type="line"/>
      <point x="498" y="1073" type="line"/>
      <point x="498" y="1218" type="line"/>
      <point x="181" y="1218" type="line"/>
    </contour>
    <component base="_cap.shiro_right" xOffset="271"/>
  </outline>
</glyph>
<glyph name="_danda001" format="2">
  <advance width="504"/>
  <outline>
    <contour>
      <point x="157" y="457" type="line"/>
      <point x="347" y="457" type="line"/>
      <point x="347" y="1153" type="line"/>
      <point x="157" y="1153" type="line"/>
    </contour>
    <contour>
      <point x="-29" y="1073" type="line"/>
      <point x="519" y="1073" type="line"/>
      <point x="533" y="1218" type="line"/>
      <point x="-16" y="1218" type="line"/>
    </contour>
  </outline>
</glyph>
<glyph name="_part.shiro" format="2">
  <advance width="1191"/>
  <outline>
    <contour>
      <point x="-29" y="1073" type="line"/>
      <point x="1205" y="1073" type="line"/>
      <point x="1220" y="1218" type="line"/>
      <point x="-15" y="1218" type="line"/>
    </contour>
  </outline>
</glyph>
<glyph name="circumflexcomb.case" format="2">
  <anchor x="421" y="1278" name="_top"/>
  <anchor x="422" y="1610" name="top"/>
  <outline>
    <contour>
      <point x="318" y="1651" type="line"/>
      <point x="101" y="1399" type="line"/>
      <point x="101" y="1396" type="line"/>
      <point x="266" y="1396" type="line"/>
      <point x="417" y="1544" type="line"/>
      <point x="425" y="1544" type="line"/>
      <point x="576" y="1396" type="line"/>
      <point x="741" y="1396" type="line"/>
      <point x="741" y="1399" type="line"/>
      <point x="524" y="1651" type="line"/>
    </contour>
  </outline>
</glyph>
<glyph name="tildecomb.case" format="2">
  <anchor x="396" y="1278" name="_top"/>
  <anchor x="396" y="1611" name="top"/>
  <outline>
    <contour>
      <point x="536" y="1415" type="curve" smooth="yes"/>
      <point x="648" y="1415"/>
      <point x="691" y="1483"/>
      <point x="691" y="1597" type="curve" smooth="yes"/>
      <point x="691" y="1628" type="line"/>
      <point x="568" y="1628" type="line"/>
      <point x="568" y="1619" type="line" smooth="yes"/>
      <point x="568" y="1575"/>
      <point x="555" y="1553"/>
      <point x="517" y="1553" type="curve" smooth="yes"/>
      <point x="449" y="1553"/>
      <point x="361" y="1617"/>
      <point x="256" y="1617" type="curve" smooth="yes"/>
      <point x="143" y="1617"/>
      <point x="100" y="1547"/>
      <point x="100" y="1434" type="curve" smooth="yes"/>
      <point x="100" y="1404" type="line"/>
      <point x="223" y="1404" type="line"/>
      <point x="223" y="1413" type="line" smooth="yes"/>
      <point x="223" y="1455"/>
      <point x="237" y="1478"/>
      <point x="275" y="1478" type="curve" smooth="yes"/>
      <point x="343" y="1478"/>
      <point x="435" y="1415"/>
    </contour>
  </outline>
</glyph>
